<svg width="30" height="24" viewBox="0 0 30 24" fill="none" xmlns="http://www.w3.org/2000/svg">
<path d="M29.9819 13.0919C30.0296 14.1994 29.6214 15.2799 28.847 16.0963C28.0727 16.9127 26.9954 17.3982 25.8517 17.4462C25.785 17.4494 25.7184 17.451 25.6518 17.451C25.3482 17.4506 25.0455 17.4187 24.7489 17.3558C23.8685 18.6719 22.7141 19.7955 21.3596 20.6549C20.0051 21.5143 18.4802 22.0905 16.8825 22.3467C16.6942 22.8844 16.3178 23.3414 15.8184 23.6389C15.3189 23.9364 14.7278 24.0556 14.1473 23.9759C13.5667 23.8961 13.0331 23.6225 12.6388 23.2023C12.2445 22.7821 12.0142 22.2417 11.9877 21.6745C11.9612 21.1073 12.1402 20.549 12.4938 20.0961C12.8474 19.6431 13.3532 19.324 13.924 19.1939C14.4948 19.0638 15.0945 19.1308 15.6197 19.3835C16.1448 19.6361 16.5623 20.0584 16.7999 20.5775C18.8385 20.2081 20.7036 19.2222 22.1267 17.7615C23.5499 16.3007 24.4578 14.4405 24.7199 12.4484C24.9819 10.4564 24.5845 8.4352 23.585 6.67568C22.5854 4.91616 21.0351 3.50901 19.1572 2.65669C17.2794 1.80437 15.1706 1.55083 13.1345 1.93254C11.0983 2.31424 9.23968 3.31152 7.82601 4.78088C6.41235 6.25025 5.51651 8.11595 5.2674 10.1096C5.01829 12.1032 5.42874 14.1219 6.4397 15.8753C6.4667 15.9214 6.48699 15.971 6.5 16.0225C6.57769 16.2341 6.56887 16.4664 6.47534 16.6719C6.38181 16.8775 6.21065 17.0406 5.99694 17.1278C5.47184 17.3403 4.90819 17.4491 4.33908 17.4478C4.27189 17.4478 4.20471 17.4462 4.13752 17.443C2.99507 17.3941 1.9192 16.9087 1.14577 16.0931C0.372328 15.2775 -0.0355836 14.1983 0.011446 13.0919C0.0304449 12.6504 0.0197064 12.2569 0.011446 11.8762C0.00153347 11.5179 -0.00837903 11.1467 0.011446 10.7564C0.0615759 9.67594 0.54158 8.65615 1.35091 7.91067C2.16024 7.1652 3.2361 6.75189 4.35312 6.75732C5.25569 4.74934 6.74416 3.04024 8.6358 1.83985C10.5274 0.639451 12.7399 0 15.0016 0C17.2633 0 19.4758 0.639451 21.3674 1.83985C23.2591 3.04024 24.7475 4.74934 25.6501 6.75732C26.7672 6.7513 27.8433 7.16444 28.6527 7.91005C29.462 8.65567 29.9416 9.67581 29.991 10.7564C30.0075 11.1435 29.9976 11.5147 29.991 11.8762C29.972 12.2577 29.9612 12.652 29.9819 13.0919ZM22.6061 11.2523C22.6054 12.3808 22.337 13.4941 21.8217 14.5062C21.3064 15.5184 20.5578 16.4025 19.6338 17.0903C18.7098 17.7781 17.6351 18.2512 16.4924 18.4732C15.3497 18.6952 14.1696 18.6602 13.0431 18.3708L9.96359 20.0928C9.80815 20.1789 9.62989 20.2186 9.45121 20.2069C9.27252 20.1953 9.10139 20.1328 8.95929 20.0272C8.81719 19.9217 8.71047 19.7778 8.65254 19.6138C8.59461 19.4497 8.58804 19.2727 8.63366 19.105L9.42088 16.2624C8.57687 15.383 7.96755 14.3173 7.64596 13.1579C7.32436 11.9985 7.30022 10.7805 7.57564 9.61002C7.85105 8.43952 8.41769 7.35191 9.22623 6.44181C10.0348 5.53172 11.0608 4.8267 12.2149 4.3881C13.369 3.9495 14.6164 3.7906 15.8484 3.92523C17.0804 4.05987 18.2598 4.48395 19.2839 5.16058C20.3081 5.83722 21.146 6.74591 21.7247 7.8076C22.3034 8.8693 22.6054 10.0518 22.6045 11.2523H22.6061ZM12.8828 11.2523C12.8828 11.019 12.7871 10.7952 12.6167 10.6302C12.4463 10.4652 12.2152 10.3725 11.9742 10.3725C11.7945 10.3725 11.6188 10.4241 11.4694 10.5208C11.3199 10.6175 11.2035 10.7549 11.1347 10.9156C11.0659 11.0764 11.0479 11.2533 11.083 11.424C11.118 11.5946 11.2046 11.7514 11.3317 11.8744C11.4587 11.9975 11.6206 12.0813 11.7969 12.1152C11.9732 12.1492 12.1559 12.1318 12.3219 12.0652C12.4879 11.9986 12.6298 11.8858 12.7297 11.7411C12.8295 11.5964 12.8828 11.4263 12.8828 11.2523ZM15.9053 11.2523C15.9052 11.2235 15.9035 11.1946 15.9003 11.1659C15.8975 11.1372 15.8931 11.1086 15.8871 11.0804C15.8817 11.0533 15.8745 11.0266 15.8657 11.0004C15.8574 10.9732 15.8467 10.946 15.8359 10.9204C15.8249 10.893 15.8123 10.8663 15.7979 10.8404C15.7841 10.8152 15.7689 10.7906 15.7525 10.7668C15.7358 10.7428 15.7179 10.7195 15.6988 10.6972C15.6803 10.6748 15.6604 10.6535 15.6393 10.6333C15.6187 10.6125 15.5964 10.5933 15.5732 10.5749C15.5501 10.5565 15.5262 10.5397 15.5014 10.5237C15.4768 10.5078 15.4515 10.4931 15.4254 10.4797C15.3989 10.4661 15.3725 10.4541 15.3428 10.4429C15.2604 10.4103 15.1736 10.3893 15.085 10.3805C14.9962 10.3721 14.9067 10.3762 14.8191 10.3925C14.7912 10.3984 14.7636 10.4056 14.7365 10.4141C14.7084 10.4222 14.6808 10.4318 14.6539 10.4429C14.6266 10.4541 14.5993 10.4661 14.5712 10.4797C14.5432 10.4933 14.52 10.5077 14.4953 10.5237C14.4707 10.5396 14.447 10.5567 14.4242 10.5749C14.4003 10.5933 14.3788 10.6133 14.3573 10.6333C14.3359 10.6535 14.3158 10.6748 14.297 10.6972C14.2782 10.7196 14.2605 10.7428 14.2441 10.7668C14.2274 10.7906 14.212 10.8151 14.1979 10.8404C14.184 10.8664 14.1716 10.8931 14.1607 10.9204C14.1492 10.9466 14.139 10.9732 14.1301 11.0004C14.1219 11.0276 14.1144 11.0556 14.1087 11.0804C14.1027 11.1086 14.0983 11.1372 14.0954 11.1659C14.0954 11.1947 14.0913 11.2235 14.0913 11.2523C14.0913 11.2811 14.0913 11.3099 14.0954 11.3387C14.0984 11.3672 14.1028 11.3955 14.1087 11.4235C14.1144 11.4515 14.1219 11.4795 14.1301 11.5035C14.1389 11.5306 14.1491 11.5573 14.1607 11.5834C14.1716 11.6107 14.184 11.6374 14.1979 11.6634C14.2119 11.6882 14.2276 11.713 14.2441 11.737C14.2605 11.7608 14.2782 11.7838 14.297 11.8058C14.316 11.8284 14.3361 11.85 14.3573 11.8706C14.3788 11.8906 14.4003 11.9106 14.4242 11.9282C14.4469 11.9465 14.4706 11.9636 14.4953 11.9794C14.52 11.9954 14.5456 12.0106 14.5712 12.0242C14.6242 12.0507 14.6795 12.0727 14.7365 12.0897C14.7645 12.0977 14.7935 12.1049 14.8191 12.1105C14.8775 12.1221 14.937 12.1277 14.9967 12.1273C15.237 12.1272 15.4675 12.0349 15.6377 11.8706C15.6795 11.8295 15.7174 11.7848 15.7508 11.737C15.7674 11.713 15.7825 11.6885 15.7963 11.6634C15.8103 11.6386 15.8227 11.6122 15.8343 11.5834C15.8456 11.5573 15.8555 11.5306 15.864 11.5035C15.8728 11.4772 15.88 11.4505 15.8855 11.4235C15.8914 11.3955 15.8958 11.3672 15.8987 11.3387C15.9019 11.31 15.9035 11.2812 15.9037 11.2523H15.9053ZM18.9294 11.2523C18.9294 11.019 18.8337 10.7952 18.6633 10.6302C18.4929 10.4652 18.2618 10.3725 18.0208 10.3725C17.8411 10.3725 17.6654 10.4241 17.516 10.5208C17.3666 10.6175 17.2501 10.7549 17.1813 10.9156C17.1125 11.0764 17.0946 11.2533 17.1296 11.424C17.1647 11.5946 17.2512 11.7514 17.3783 11.8744C17.5054 11.9975 17.6673 12.0813 17.8435 12.1152C18.0198 12.1492 18.2025 12.1318 18.3685 12.0652C18.5346 11.9986 18.6765 11.8858 18.7763 11.7411C18.8762 11.5964 18.9294 11.4263 18.9294 11.2523Z" fill="black"/>
</svg>
