<svg width="19" height="19" viewBox="0 0 19 19" fill="none" xmlns="http://www.w3.org/2000/svg">
<path d="M7.30299 0H1.38161C0.61975 0 0 0.612486 0 1.36541V4.8766C0 5.62967 0.61975 6.24216 1.38161 6.24216H7.30299C8.065 6.24216 8.68475 5.62967 8.68475 4.8766V1.36541C8.68475 0.612486 8.065 0 7.30299 0Z" fill="#420083"/>
<path d="M7.30299 7.87109H1.38161C0.61975 7.87109 0 8.49499 0 9.2621V17.6076C0 18.3745 0.61975 18.9984 1.38161 18.9984H7.30299C8.065 18.9984 8.68475 18.3745 8.68475 17.6076V9.2621C8.68475 8.49499 8.065 7.87109 7.30299 7.87109Z" fill="#420083"/>
<path d="M17.6183 12.7559H11.6969C10.9349 12.7559 10.3152 13.3683 10.3152 14.1214V17.6326C10.3152 18.3855 10.9349 18.998 11.6969 18.998H17.6183C18.3802 18.998 18.9999 18.3855 18.9999 17.6326V14.1214C18.9999 13.3683 18.3802 12.7559 17.6183 12.7559Z" fill="#420083"/>
<path d="M17.6183 0H11.6969C10.9349 0 10.3152 0.623901 10.3152 1.39086V9.73632C10.3152 10.5034 10.9349 11.1273 11.6969 11.1273H17.6183C18.3802 11.1273 18.9999 10.5034 18.9999 9.73632V1.39086C18.9999 0.623901 18.3802 0 17.6183 0Z" fill="#420083"/>
</svg>
