<svg width="300" height="151" viewBox="0 0 300 151" fill="none" xmlns="http://www.w3.org/2000/svg">
<path d="M140.445 6.29647C143.521 3.28985 147.441 1.24238 151.709 0.412972C155.976 -0.416439 160.4 0.00945553 164.42 1.6368C168.439 3.26415 171.876 6.01986 174.292 9.55547C176.71 13.0911 178 17.2478 178 21.5C178 25.7522 176.71 29.9089 174.292 33.4446C171.876 36.9801 168.439 39.7359 164.42 41.3632C160.4 42.9906 155.976 43.4164 151.709 42.587C147.441 41.7576 143.521 39.7101 140.445 36.7035C138.402 34.7071 136.78 32.3369 135.675 29.7283C134.569 27.1196 134 24.3236 134 21.5C134 18.6764 134.569 15.8804 135.675 13.2717C136.78 10.6631 138.402 8.29291 140.445 6.29647ZM143.564 33.6458C146.023 36.0491 149.155 37.686 152.565 38.3494C155.975 39.0128 159.511 38.673 162.723 37.3728C165.936 36.0726 168.682 33.8705 170.614 31.045C172.546 28.2195 173.578 24.8976 173.578 21.4993C173.578 18.101 172.546 14.779 170.614 11.9536C168.682 9.12811 165.936 6.92603 162.723 5.62585C159.511 4.32566 155.975 3.98579 152.565 4.64921C149.155 5.31263 146.023 6.94954 143.564 9.35293C140.276 12.5784 138.429 16.9461 138.429 21.4993C138.429 26.0526 140.276 30.4203 143.564 33.6458Z" fill="#913BEF"/>
<path d="M123.371 51.1048L126.898 54.6294C127.141 54.8669 127.466 55 127.806 55C128.144 55 128.471 54.8669 128.713 54.6294L139.931 43.4081C140.61 44.0774 141.526 44.4512 142.48 44.4481C143.434 44.4448 144.347 44.0649 145.022 43.3911L146 42.4048C143.751 41.3094 141.702 39.8428 139.94 38.0663C138.166 36.2985 136.696 34.2486 135.592 32L134.615 32.9863C133.94 33.6607 133.561 34.5742 133.557 35.5276C133.554 36.481 133.928 37.397 134.598 38.0759L123.371 49.2917C123.133 49.5339 123 49.8595 123 50.1986C123 50.5378 123.133 50.8627 123.371 51.1048Z" fill="#913BEF"/>
<path d="M129.125 63H123.875C123.643 63.0004 123.421 63.1059 123.257 63.2934C123.093 63.4809 123.001 63.735 123 64.0002V76H130V64.0002C130 63.735 129.908 63.4809 129.744 63.2934C129.579 63.1059 129.358 63.0004 129.125 63Z" fill="#420083"/>
<path d="M145 49H139C138.735 49.0004 138.481 49.1058 138.294 49.2934C138.106 49.4808 138.001 49.735 138 50.0002V76H146V50.0002C145.999 49.735 145.894 49.4808 145.706 49.2934C145.519 49.1058 145.265 49.0004 145 49Z" fill="#420083"/>
<path d="M162 55H156C155.735 55.0004 155.481 55.1059 155.293 55.2934C155.105 55.4809 155 55.735 155 56.0002V76H163V56.0016C163 55.7362 162.895 55.4817 162.707 55.2938C162.519 55.1061 162.265 55.0004 162 55Z" fill="#420083"/>
<path d="M177.123 47H171.875C171.643 47.0003 171.421 47.1058 171.256 47.2933C171.092 47.4808 171 47.7349 171 48.0001V76H178V48.0001C178 47.8686 177.977 47.7383 177.933 47.6169C177.889 47.4954 177.824 47.385 177.742 47.2921C177.661 47.1993 177.565 47.1256 177.458 47.0755C177.352 47.0253 177.238 46.9997 177.123 47Z" fill="#420083"/>
<path d="M157 9C157.593 9 158.173 9.20528 158.667 9.58983C159.16 9.97447 159.545 10.521 159.772 11.1606C159.998 11.8001 160.058 12.5039 159.942 13.1828C159.826 13.8617 159.541 14.4854 159.121 14.9748C158.702 15.4643 158.167 15.7977 157.585 15.9328C157.003 16.0677 156.4 15.9985 155.852 15.7336C155.304 15.4687 154.835 15.02 154.506 14.4445C154.176 13.8689 154 13.1922 154 12.5C154 11.5718 154.316 10.6815 154.879 10.0252C155.441 9.36875 156.204 9 157 9Z" fill="#420083"/>
<path d="M156.5 9C157.192 9 157.869 9.20527 158.445 9.58986C159.021 9.97444 159.468 10.521 159.734 11.1606C159.998 11.8002 160.068 12.5039 159.932 13.1828C159.798 13.8617 159.465 14.4854 158.975 14.9749C158.485 15.4644 157.862 15.7977 157.182 15.9328C156.504 16.0678 155.8 15.9984 155.16 15.7335C154.521 15.4687 153.974 15.0201 153.589 14.4445C153.205 13.869 153 13.1922 153 12.5C153.001 11.572 153.37 10.6824 154.026 10.0263C154.682 9.37016 155.572 9.00106 156.5 9ZM156.5 15.3266C157.059 15.326 157.605 15.1598 158.07 14.8489C158.534 14.538 158.896 14.0963 159.11 13.5798C159.323 13.0633 159.379 12.4951 159.269 11.947C159.16 11.3988 158.891 10.8954 158.495 10.5004C158.099 10.1053 157.596 9.8364 157.048 9.72756C156.499 9.61871 155.931 9.67485 155.415 9.8889C154.898 10.1029 154.457 10.4651 154.146 10.9299C153.836 11.3947 153.67 11.941 153.67 12.5C153.671 13.2498 153.969 13.9687 154.5 14.4986C155.031 15.0287 155.75 15.3264 156.5 15.3266Z" fill="#420083"/>
<path d="M166.701 16.0368C159.941 17.2067 153.006 17.2067 146.247 16.0368C146.11 16.0132 145.97 16.0149 145.834 16.042C145.698 16.0691 145.569 16.121 145.455 16.1946C145.342 16.2683 145.244 16.3623 145.169 16.4711C145.096 16.5798 145.045 16.7013 145.022 16.8283C144.993 16.9551 144.993 17.086 145.022 17.2128C145.05 17.3396 145.105 17.4598 145.185 17.566C145.265 17.6723 145.367 17.7623 145.486 17.8307C145.604 17.8991 145.737 17.9445 145.875 17.964C148.172 18.3483 150.489 18.6126 152.817 18.7554C153.258 18.7869 153.668 18.9774 153.96 19.2862C154.252 19.595 154.401 19.9973 154.376 20.4069V20.4755L154.191 22.0927C153.881 24.6313 153.246 27.1263 152.297 29.525L151.035 32.6565C150.939 32.8937 150.948 33.1562 151.059 33.3877C151.169 33.6192 151.373 33.8014 151.626 33.8951C151.883 33.9835 152.165 33.9757 152.415 33.8732C152.665 33.7706 152.862 33.5815 152.963 33.3464L153.258 32.7614C154.261 30.7656 155.227 28.7013 156.08 26.6369C156.1 26.5834 156.131 26.5342 156.171 26.4925C156.213 26.4508 156.263 26.4176 156.319 26.3949C156.374 26.3721 156.435 26.3606 156.495 26.3608C156.557 26.3611 156.617 26.3731 156.672 26.3963C156.731 26.4171 156.785 26.4493 156.83 26.4909C156.874 26.5324 156.91 26.5821 156.932 26.6369C157.786 28.7013 158.75 30.7664 159.753 32.7614L160.087 33.4151C160.163 33.5865 160.291 33.7337 160.456 33.8378C160.621 33.9419 160.816 33.9984 161.015 34C161.142 33.9937 161.267 33.9706 161.386 33.9315C161.516 33.8895 161.635 33.824 161.737 33.7387C161.84 33.6534 161.923 33.5502 161.981 33.4349C162.04 33.3195 162.073 33.1945 162.079 33.0671C162.086 32.9397 162.064 32.8125 162.016 32.6928V32.6585L160.755 29.527C159.797 27.131 159.161 24.6347 158.861 22.0947L158.675 20.4776C158.629 20.0727 158.753 19.6668 159.023 19.3457C159.294 19.0246 159.688 18.8134 160.124 18.7568H160.197C162.503 18.6309 164.796 18.3665 167.066 17.9654C167.323 17.9261 167.558 17.8042 167.729 17.621C167.899 17.4378 167.996 17.2048 168 16.9627C168 16.708 167.891 16.4638 167.697 16.2837C167.503 16.1037 167.239 16.0025 166.965 16.0025C166.877 15.9944 166.787 16.0061 166.704 16.0368H166.701Z" fill="#420083"/>
<path d="M166.634 16.0011C166.996 16.0016 167.343 16.1345 167.6 16.3706C167.855 16.6066 167.999 16.9266 168 17.2604V17.2823C167.989 17.588 167.863 17.8807 167.645 18.1113C167.428 18.3419 167.13 18.4962 166.803 18.5483C164.593 18.9373 162.358 19.1934 160.113 19.3147H160.041C159.72 19.3648 159.431 19.5251 159.233 19.7635C159.034 20.0019 158.941 20.3007 158.971 20.5997V20.6058L159.151 22.1637C159.438 24.5833 160.047 26.9611 160.965 29.2434L162.21 32.3158V32.3587C162.306 32.6601 162.28 32.9832 162.138 33.2686C162.063 33.4209 161.953 33.5572 161.817 33.6687C161.682 33.7803 161.523 33.8647 161.35 33.9168C161.198 33.9659 161.038 33.994 160.877 34C160.614 33.9982 160.356 33.9251 160.138 33.7897C159.92 33.6541 159.75 33.4623 159.648 33.2382L159.328 32.6151C158.274 30.5291 157.352 28.5371 156.585 26.693L156.581 26.6831C156.573 26.6723 156.563 26.6631 156.551 26.656L156.531 26.65L156.509 26.6395C156.505 26.6374 156.499 26.6362 156.495 26.6362C156.479 26.6362 156.448 26.6567 156.424 26.7022C155.658 28.5444 154.736 30.5344 153.684 32.6164L153.402 33.1681C153.303 33.4031 153.127 33.6043 152.899 33.745C152.672 33.8856 152.404 33.9591 152.129 33.9557C151.97 33.9555 151.813 33.9316 151.662 33.885H151.655C151.488 33.8299 151.336 33.7437 151.206 33.6319C151.076 33.52 150.974 33.3849 150.903 33.2348C150.759 32.9311 150.743 32.5886 150.859 32.2748L150.864 32.2636L152.086 29.2487C152.995 26.9635 153.604 24.5859 153.9 22.1671L154.078 20.6269V20.5648C154.099 20.2559 153.987 19.9519 153.767 19.7184C153.547 19.4849 153.235 19.3409 152.9 19.3173C150.633 19.1795 148.376 18.9236 146.139 18.5508C145.777 18.4926 145.455 18.3057 145.241 18.0302C145.138 17.8916 145.065 17.7353 145.028 17.5703C144.991 17.4054 144.991 17.2353 145.026 17.0702C145.083 16.7776 145.248 16.5125 145.495 16.3207C145.741 16.1289 146.052 16.0224 146.375 16.0196C146.462 16.0197 146.549 16.0277 146.635 16.0434C149.879 16.6011 153.173 16.882 156.473 16.8825C159.762 16.882 163.042 16.6034 166.274 16.05C166.39 16.012 166.512 15.9954 166.634 16.0011ZM167.279 17.2499C167.277 17.0937 167.208 16.9446 167.087 16.8349C166.966 16.7253 166.803 16.6638 166.634 16.6638C166.598 16.6638 166.554 16.6638 166.535 16.6638L166.499 16.681L166.449 16.6896C163.16 17.2552 159.821 17.54 156.476 17.5406C153.131 17.54 149.792 17.2552 146.502 16.6896H146.498C146.458 16.6822 146.418 16.6785 146.377 16.6784C146.222 16.6811 146.074 16.7336 145.956 16.8266C145.84 16.9196 145.761 17.0474 145.736 17.1878C145.718 17.267 145.719 17.3487 145.736 17.4279C145.754 17.5069 145.789 17.5819 145.84 17.648C145.89 17.7142 145.955 17.7702 146.03 17.8127C146.104 17.855 146.188 17.883 146.274 17.8948C148.485 18.2633 150.715 18.5163 152.957 18.6526H152.963C153.483 18.6884 153.967 18.9121 154.31 19.275C154.649 19.6364 154.826 20.1034 154.804 20.5807V20.658L154.622 22.2338C154.319 24.7061 153.698 27.1362 152.769 29.472L151.55 32.4823C151.488 32.6277 151.491 32.7895 151.557 32.9332C151.623 33.077 151.747 33.1913 151.903 33.2521C151.979 33.2752 152.06 33.287 152.139 33.287C152.269 33.2918 152.395 33.2592 152.504 33.194C152.612 33.1287 152.695 33.034 152.741 32.923L152.747 32.9078L153.042 32.3297C154.088 30.2589 155.004 28.2814 155.766 26.4492L155.771 26.4373C155.83 26.3013 155.93 26.1842 156.061 26.1005C156.191 26.0167 156.346 25.9701 156.504 25.9662C156.612 25.9669 156.719 25.9894 156.816 26.0323C156.92 26.0703 157.012 26.1277 157.091 26.2008C157.168 26.2739 157.229 26.3613 157.267 26.4571C158.028 28.2847 158.942 30.2603 159.991 32.3303L160.323 32.9779C160.369 33.0815 160.448 33.1703 160.548 33.2334C160.649 33.2967 160.766 33.3313 160.888 33.3333C160.973 33.3269 161.055 33.3103 161.135 33.2838C161.216 33.2576 161.29 33.2166 161.355 33.163C161.418 33.1094 161.469 33.0445 161.506 32.9722C161.542 32.8998 161.561 32.8215 161.563 32.7419C161.566 32.6624 161.55 32.5833 161.519 32.5094L161.5 32.4585V32.4314L160.3 29.4707C159.362 27.1367 158.738 24.705 158.445 22.2305L158.265 20.6745C158.209 20.1975 158.357 19.7193 158.678 19.3411C158.998 18.9631 159.465 18.7151 159.981 18.6499H160.003H160.086C162.299 18.5303 164.501 18.2777 166.68 17.8941H166.699C166.862 17.8655 167.008 17.7857 167.115 17.6681C167.221 17.5507 167.28 17.4028 167.281 17.2499H167.279Z" fill="#420083"/>
<path d="M287.85 122C287.679 122 287.536 121.944 287.422 121.832C287.308 121.718 287.251 121.578 287.251 121.409C287.251 121.381 287.251 121.325 287.251 121.268C287.251 121.211 287.279 121.127 287.337 121.043L289.561 115.747L284.085 102.958C284.028 102.846 284 102.733 284 102.62C284.028 102.451 284.114 102.311 284.228 102.197C284.342 102.085 284.485 102 284.655 102H287.907C288.136 102 288.335 102.085 288.449 102.197C288.563 102.311 288.678 102.451 288.734 102.592L291.985 110.789L295.322 102.592C295.379 102.451 295.494 102.311 295.608 102.197C295.721 102.085 295.921 102 296.178 102H299.372C299.543 102 299.685 102.085 299.8 102.197C299.914 102.311 300 102.451 300 102.592C300 102.705 299.972 102.818 299.914 102.958L291.843 121.409C291.785 121.578 291.672 121.718 291.558 121.832C291.415 121.944 291.215 122 290.987 122H287.85Z" fill="#420083"/>
<path d="M278.699 116C277.497 116 276.462 115.839 275.594 115.465C274.727 115.09 274.055 114.528 273.609 113.752C273.133 112.976 272.909 111.96 272.909 110.729V105.59H270.727C270.504 105.59 270.335 105.537 270.196 105.403C270.056 105.296 270 105.135 270 104.921V102.753C270 102.567 270.056 102.406 270.196 102.272C270.335 102.165 270.504 102.085 270.727 102.085H272.909V97.6693C272.909 97.4817 272.965 97.3209 273.105 97.1875C273.244 97.0809 273.413 97 273.609 97H276.853C277.049 97 277.217 97.0809 277.356 97.1875C277.469 97.3209 277.553 97.4817 277.553 97.6693V102.085H281.05C281.245 102.085 281.413 102.165 281.553 102.272C281.692 102.406 281.776 102.567 281.776 102.753V104.921C281.776 105.135 281.692 105.296 281.553 105.403C281.413 105.537 281.245 105.59 281.05 105.59H277.553V110.353C277.553 110.969 277.664 111.451 277.916 111.799C278.14 112.174 278.56 112.334 279.147 112.334H281.301C281.496 112.334 281.665 112.415 281.804 112.521C281.916 112.655 282 112.815 282 113.003V115.331C282 115.518 281.916 115.679 281.804 115.812C281.665 115.947 281.496 116 281.301 116H278.699Z" fill="#420083"/>
<path d="M262.765 116C262.53 116 262.353 115.946 262.235 115.809C262.088 115.674 262.029 115.51 262.029 115.32V102.531C262.029 102.34 262.088 102.177 262.235 102.041C262.353 101.932 262.53 101.851 262.765 101.851H266.235C266.441 101.851 266.618 101.932 266.765 102.041C266.883 102.177 266.971 102.34 266.971 102.531V115.32C266.971 115.51 266.883 115.674 266.765 115.809C266.618 115.946 266.441 116 266.235 116H262.765ZM262.736 99.8098C262.5 99.8098 262.323 99.7556 262.206 99.6191C262.059 99.5106 262 99.347 262 99.1292V96.68C262 96.517 262.059 96.3537 262.206 96.2177C262.323 96.0816 262.5 96 262.736 96H266.265C266.441 96 266.618 96.0816 266.765 96.2177C266.912 96.3537 267 96.517 267 96.68V99.1292C267 99.347 266.912 99.5106 266.765 99.6191C266.618 99.7556 266.441 99.8098 266.265 99.8098H262.736Z" fill="#420083"/>
<path d="M253.596 116C253.405 116 253.262 115.947 253.167 115.812C253.047 115.679 253 115.518 253 115.331V97.6693C253 97.4817 253.047 97.3209 253.167 97.1875C253.262 97.0809 253.405 97 253.596 97H256.405C256.571 97 256.715 97.0809 256.834 97.1875C256.929 97.3209 257 97.4817 257 97.6693V115.331C257 115.518 256.929 115.679 256.834 115.812C256.715 115.947 256.571 116 256.405 116H253.596Z" fill="#420083"/>
<path d="M244.612 116C244.424 116 244.282 115.946 244.188 115.809C244.07 115.674 244.023 115.51 244.023 115.32V102.531C244.023 102.34 244.07 102.177 244.188 102.041C244.282 101.932 244.424 101.851 244.612 101.851H247.388C247.553 101.851 247.694 101.932 247.812 102.041C247.906 102.177 247.977 102.34 247.977 102.531V115.32C247.977 115.51 247.906 115.674 247.812 115.809C247.694 115.946 247.553 116 247.388 116H244.612ZM244.589 99.8098C244.4 99.8098 244.259 99.7556 244.165 99.6191C244.047 99.5106 244 99.347 244 99.1292V96.68C244 96.517 244.047 96.3537 244.165 96.2177C244.259 96.0816 244.4 96 244.589 96H247.412C247.553 96 247.694 96.0816 247.812 96.2177C247.93 96.3537 248 96.517 248 96.68V99.1292C248 99.347 247.93 99.5106 247.812 99.6191C247.694 99.7556 247.553 99.8098 247.412 99.8098H244.589Z" fill="#420083"/>
<path d="M233.966 117C232.923 117 232.049 116.834 231.344 116.472C230.611 116.139 230.047 115.695 229.595 115.139V116.028C229.595 116.222 229.511 116.389 229.371 116.528C229.229 116.667 229.06 116.722 228.891 116.722H225.705C225.479 116.722 225.31 116.667 225.198 116.528C225.056 116.389 225 116.222 225 116.028V97.6947C225 97.5001 225.056 97.333 225.198 97.1947C225.31 97.084 225.479 97 225.705 97H229.145C229.343 97 229.511 97.084 229.653 97.1947C229.765 97.333 229.849 97.5001 229.849 97.6947V103.639C230.301 103.167 230.892 102.778 231.57 102.473C232.247 102.167 233.036 102 233.966 102C234.897 102 235.715 102.167 236.448 102.473C237.181 102.778 237.801 103.222 238.309 103.778C238.816 104.334 239.211 105.027 239.492 105.834C239.775 106.639 239.916 107.528 239.972 108.5C239.972 108.889 240 109.223 240 109.5C240 109.778 239.972 110.111 239.972 110.473C239.916 111.528 239.775 112.444 239.492 113.251C239.211 114.056 238.788 114.75 238.281 115.306C237.773 115.862 237.153 116.305 236.448 116.584C235.715 116.862 234.897 117 233.966 117ZM232.443 113.278C233.064 113.278 233.572 113.167 233.938 112.889C234.276 112.639 234.53 112.278 234.699 111.833C234.869 111.389 234.953 110.916 235.009 110.361C235.037 109.806 235.037 109.223 235.009 108.639C234.953 108.112 234.869 107.612 234.699 107.167C234.53 106.722 234.276 106.389 233.938 106.112C233.572 105.862 233.064 105.722 232.443 105.722C231.851 105.722 231.372 105.862 231.006 106.112C230.611 106.362 230.329 106.695 230.16 107.084C229.963 107.472 229.849 107.917 229.849 108.361C229.821 108.722 229.821 109.056 229.821 109.39C229.821 109.723 229.821 110.083 229.849 110.445C229.878 110.945 229.991 111.416 230.16 111.833C230.329 112.278 230.583 112.611 230.978 112.889C231.344 113.167 231.823 113.278 232.443 113.278Z" fill="#420083"/>
<path d="M216.612 116C216.424 116 216.282 115.946 216.188 115.809C216.07 115.674 216.023 115.51 216.023 115.32V102.531C216.023 102.34 216.07 102.177 216.188 102.041C216.282 101.932 216.424 101.851 216.612 101.851H219.389C219.553 101.851 219.694 101.932 219.812 102.041C219.906 102.177 219.977 102.34 219.977 102.531V115.32C219.977 115.51 219.906 115.674 219.812 115.809C219.694 115.946 219.553 116 219.389 116H216.612ZM216.589 99.8098C216.4 99.8098 216.259 99.7556 216.165 99.6191C216.047 99.5106 216 99.347 216 99.1292V96.68C216 96.517 216.047 96.3537 216.165 96.2177C216.259 96.0816 216.4 96 216.589 96H219.412C219.553 96 219.694 96.0816 219.812 96.2177C219.93 96.3537 220 96.517 220 96.68V99.1292C220 99.347 219.93 99.5106 219.812 99.6191C219.694 99.7556 219.553 99.8098 219.412 99.8098H216.589Z" fill="#420083"/>
<path d="M204.89 117C203.639 117 202.586 116.888 201.733 116.611C200.879 116.333 200.169 116 199.629 115.611C199.088 115.222 198.69 114.833 198.434 114.417C198.15 114 198.007 113.639 198.007 113.305C197.979 113.111 198.036 112.944 198.206 112.806C198.349 112.694 198.519 112.611 198.69 112.611H201.932C201.989 112.611 202.018 112.639 202.074 112.639C202.131 112.667 202.188 112.694 202.245 112.75C202.472 112.889 202.728 113.055 202.984 113.25C203.212 113.444 203.496 113.611 203.838 113.75C204.15 113.917 204.548 113.972 205.003 113.972C205.515 113.972 205.971 113.889 206.34 113.667C206.681 113.444 206.88 113.139 206.88 112.75C206.88 112.472 206.795 112.222 206.624 112.027C206.454 111.834 206.084 111.639 205.572 111.444C205.06 111.278 204.264 111.084 203.24 110.889C202.245 110.667 201.391 110.389 200.653 110.028C199.913 109.667 199.344 109.194 198.946 108.611C198.548 108.028 198.349 107.306 198.349 106.473C198.349 105.75 198.577 105.028 199.088 104.333C199.571 103.667 200.282 103.112 201.25 102.667C202.188 102.222 203.354 102 204.776 102C205.856 102 206.795 102.139 207.62 102.389C208.416 102.639 209.099 102.945 209.668 103.334C210.208 103.722 210.635 104.139 210.919 104.528C211.204 104.945 211.345 105.306 211.374 105.64C211.374 105.833 211.317 106 211.204 106.14C211.061 106.278 210.919 106.333 210.748 106.333H207.791C207.705 106.333 207.62 106.333 207.563 106.306C207.478 106.278 207.421 106.25 207.364 106.195C207.136 106.083 206.909 105.945 206.681 105.75C206.454 105.583 206.17 105.417 205.885 105.25C205.572 105.112 205.203 105.028 204.747 105.028C204.235 105.028 203.838 105.14 203.554 105.361C203.269 105.583 203.127 105.89 203.127 106.223C203.127 106.473 203.183 106.695 203.354 106.889C203.524 107.111 203.838 107.278 204.35 107.445C204.862 107.611 205.629 107.806 206.71 108C208.019 108.223 209.042 108.556 209.839 109C210.606 109.444 211.147 109.972 211.488 110.584C211.829 111.194 212 111.806 212 112.472C212 113.361 211.716 114.167 211.175 114.833C210.606 115.528 209.809 116.055 208.757 116.445C207.705 116.833 206.426 117 204.89 117Z" fill="#420083"/>
<path d="M188.398 117C187.236 117 186.259 116.888 185.467 116.611C184.674 116.333 184.014 116 183.512 115.611C183.011 115.222 182.641 114.833 182.403 114.417C182.139 114 182.006 113.639 182.006 113.305C181.98 113.111 182.034 112.944 182.191 112.806C182.324 112.694 182.482 112.611 182.641 112.611H185.651C185.704 112.611 185.731 112.639 185.783 112.639C185.836 112.667 185.889 112.694 185.942 112.75C186.153 112.889 186.39 113.055 186.628 113.25C186.839 113.444 187.103 113.611 187.421 113.75C187.711 113.917 188.08 113.972 188.503 113.972C188.979 113.972 189.401 113.889 189.744 113.667C190.062 113.444 190.246 113.139 190.246 112.75C190.246 112.472 190.167 112.222 190.008 112.027C189.85 111.834 189.507 111.639 189.031 111.444C188.556 111.278 187.816 111.084 186.866 110.889C185.942 110.667 185.149 110.389 184.463 110.028C183.776 109.667 183.248 109.194 182.878 108.611C182.509 108.028 182.324 107.306 182.324 106.473C182.324 105.75 182.535 105.028 183.011 104.333C183.459 103.667 184.119 103.112 185.018 102.667C185.889 102.222 186.972 102 188.292 102C189.295 102 190.167 102.139 190.933 102.389C191.672 102.639 192.306 102.945 192.834 103.334C193.336 103.722 193.733 104.139 193.997 104.528C194.261 104.945 194.392 105.306 194.418 105.64C194.418 105.833 194.366 106 194.261 106.14C194.128 106.278 193.997 106.333 193.838 106.333H191.092C191.012 106.333 190.933 106.333 190.88 106.306C190.801 106.278 190.748 106.25 190.695 106.195C190.484 106.083 190.272 105.945 190.062 105.75C189.85 105.583 189.586 105.417 189.322 105.25C189.031 105.112 188.688 105.028 188.265 105.028C187.79 105.028 187.421 105.14 187.157 105.361C186.893 105.583 186.76 105.89 186.76 106.223C186.76 106.473 186.813 106.695 186.972 106.889C187.13 107.111 187.421 107.278 187.896 107.445C188.372 107.611 189.084 107.806 190.088 108C191.303 108.223 192.253 108.556 192.993 109C193.705 109.444 194.208 109.972 194.525 110.584C194.841 111.194 195 111.806 195 112.472C195 113.361 194.736 114.167 194.234 114.833C193.705 115.528 192.966 116.055 191.989 116.445C191.012 116.833 189.824 117 188.398 117Z" fill="#420083"/>
<path d="M171.514 117C169.24 117 167.426 116.417 166.102 115.222C164.749 114.055 164.057 112.277 164 109.944V109.444V108.973C164.057 107.528 164.375 106.278 165.008 105.223C165.641 104.167 166.505 103.389 167.599 102.834C168.693 102.278 169.989 102 171.485 102C173.156 102 174.566 102.334 175.66 102.972C176.754 103.639 177.589 104.5 178.164 105.611C178.711 106.723 179 108 179 109.416V110.084C179 110.306 178.913 110.472 178.798 110.584C178.654 110.722 178.482 110.778 178.28 110.778H169.067V110.861V110.972C169.067 111.528 169.183 112 169.355 112.444C169.528 112.889 169.816 113.25 170.161 113.5C170.507 113.777 170.967 113.889 171.485 113.889C171.86 113.889 172.177 113.834 172.436 113.722C172.695 113.611 172.925 113.472 173.097 113.305C173.27 113.139 173.385 113 173.501 112.889C173.674 112.694 173.789 112.584 173.903 112.527C174.019 112.472 174.191 112.444 174.422 112.444H177.992C178.164 112.444 178.337 112.5 178.453 112.611C178.568 112.722 178.625 112.889 178.625 113.055C178.596 113.389 178.423 113.75 178.136 114.194C177.819 114.639 177.358 115.083 176.783 115.528C176.207 115.972 175.458 116.305 174.595 116.583C173.703 116.861 172.666 117 171.514 117ZM169.067 108.028H173.932V107.973C173.932 107.361 173.817 106.861 173.644 106.417C173.472 105.973 173.184 105.64 172.81 105.39C172.436 105.167 172.003 105.028 171.485 105.028C170.967 105.028 170.536 105.167 170.189 105.39C169.816 105.64 169.528 105.973 169.355 106.417C169.154 106.861 169.067 107.361 169.067 107.973V108.028Z" fill="#420083"/>
<path d="M152.969 117C151.431 117 150.107 116.75 148.938 116.25C147.769 115.75 146.816 115.028 146.138 114.084C145.462 113.139 145.093 111.972 145.031 110.639C145 110.361 145 109.972 145 109.528C145 109.083 145 108.694 145.031 108.389C145.093 107.056 145.462 105.89 146.138 104.945C146.816 104 147.739 103.25 148.908 102.75C150.077 102.25 151.431 102 152.969 102C154.384 102 155.585 102.195 156.6 102.556C157.615 102.917 158.446 103.362 159.061 103.889C159.677 104.445 160.169 105 160.477 105.556C160.784 106.111 160.968 106.611 161 107.028C161 107.223 160.938 107.389 160.784 107.528C160.599 107.666 160.415 107.723 160.23 107.723H156.323C156.076 107.723 155.923 107.695 155.799 107.583C155.677 107.5 155.553 107.361 155.461 107.167C155.215 106.611 154.877 106.195 154.508 105.945C154.138 105.723 153.646 105.583 153.062 105.583C152.231 105.583 151.584 105.833 151.154 106.306C150.723 106.806 150.477 107.528 150.446 108.528C150.415 109.278 150.415 109.944 150.446 110.501C150.508 111.528 150.754 112.277 151.185 112.722C151.616 113.194 152.231 113.417 153.062 113.417C153.677 113.417 154.2 113.305 154.569 113.055C154.938 112.806 155.215 112.389 155.461 111.834C155.553 111.667 155.677 111.528 155.799 111.417C155.923 111.334 156.076 111.278 156.323 111.278H160.23C160.415 111.278 160.599 111.361 160.784 111.472C160.938 111.611 161 111.778 161 111.972C160.968 112.277 160.876 112.639 160.691 113.055C160.507 113.5 160.2 113.944 159.83 114.389C159.43 114.862 158.907 115.278 158.292 115.667C157.677 116.055 156.907 116.388 156.046 116.638C155.154 116.888 154.138 117 152.969 117Z" fill="#420083"/>
<path d="M134.973 117C133.627 117 132.469 116.75 131.446 116.25C130.423 115.75 129.589 115.028 128.996 114.084C128.404 113.139 128.08 111.972 128.027 110.639C128 110.361 128 109.972 128 109.528C128 109.083 128 108.694 128.027 108.389C128.08 107.056 128.404 105.89 128.996 104.945C129.589 104 130.397 103.25 131.42 102.75C132.443 102.25 133.627 102 134.973 102C136.212 102 137.261 102.195 138.15 102.556C139.039 102.917 139.765 103.362 140.305 103.889C140.843 104.445 141.274 105 141.543 105.556C141.812 106.111 141.973 106.611 142 107.028C142 107.223 141.946 107.389 141.812 107.528C141.65 107.666 141.488 107.723 141.328 107.723H137.908C137.693 107.723 137.558 107.695 137.45 107.583C137.343 107.5 137.235 107.361 137.154 107.167C136.939 106.611 136.643 106.195 136.32 105.945C135.996 105.723 135.566 105.583 135.055 105.583C134.328 105.583 133.761 105.833 133.385 106.306C133.008 106.806 132.792 107.528 132.765 108.528C132.738 109.278 132.738 109.944 132.765 110.501C132.82 111.528 133.034 112.277 133.412 112.722C133.788 113.194 134.328 113.417 135.055 113.417C135.593 113.417 136.051 113.305 136.374 113.055C136.696 112.806 136.939 112.389 137.154 111.834C137.235 111.667 137.343 111.528 137.45 111.417C137.558 111.334 137.693 111.278 137.908 111.278H141.328C141.488 111.278 141.65 111.361 141.812 111.472C141.946 111.611 142 111.778 142 111.972C141.973 112.277 141.893 112.639 141.731 113.055C141.57 113.5 141.301 113.944 140.977 114.389C140.627 114.862 140.17 115.278 139.631 115.667C139.093 116.055 138.42 116.388 137.666 116.638C136.885 116.888 135.996 117 134.973 117Z" fill="#420083"/>
<path d="M106.571 117C106.408 117 106.272 116.943 106.163 116.828C106.054 116.714 106 116.571 106 116.4C106 116.314 106 116.229 106.027 116.143L112.424 97.8C112.478 97.5997 112.587 97.4289 112.75 97.2572C112.914 97.0854 113.159 97 113.485 97H117.514C117.814 97 118.059 97.0854 118.222 97.2572C118.385 97.4289 118.521 97.5997 118.576 97.8L124.946 116.143C124.973 116.229 125 116.314 125 116.4C125 116.571 124.919 116.714 124.809 116.828C124.701 116.943 124.565 117 124.401 117H121.054C120.78 117 120.564 116.943 120.427 116.8C120.291 116.657 120.209 116.514 120.182 116.4L119.121 113.486H111.852L110.818 116.4C110.764 116.514 110.681 116.657 110.573 116.8C110.436 116.943 110.219 117 109.919 117H106.571ZM112.968 109.371H118.032L115.5 101.828L112.968 109.371Z" fill="#420083"/>
<path d="M100.699 116C99.4961 116 98.4612 115.839 97.5944 115.465C96.7271 115.09 96.0558 114.528 95.6082 113.752C95.1327 112.976 94.9089 111.96 94.9089 110.729V105.59H92.7272C92.5034 105.59 92.3357 105.537 92.1957 105.403C92.0559 105.296 92 105.135 92 104.921V102.753C92 102.567 92.0559 102.406 92.1957 102.272C92.3357 102.165 92.5034 102.085 92.7272 102.085H94.9089V97.6693C94.9089 97.4817 94.9649 97.3209 95.1048 97.1875C95.2446 97.0809 95.4125 97 95.6082 97H98.8533C99.0483 97 99.2165 97.0809 99.3568 97.1875C99.4683 97.3209 99.5519 97.4817 99.5519 97.6693V102.085H103.049C103.245 102.085 103.412 102.165 103.552 102.272C103.692 102.406 103.776 102.567 103.776 102.753V104.921C103.776 105.135 103.692 105.296 103.552 105.403C103.412 105.537 103.245 105.59 103.049 105.59H99.5519V110.353C99.5519 110.969 99.6643 111.451 99.916 111.799C100.14 112.174 100.559 112.334 101.146 112.334H103.3C103.496 112.334 103.664 112.415 103.804 112.521C103.915 112.655 104 112.815 104 113.003V115.331C104 115.518 103.915 115.679 103.804 115.812C103.664 115.947 103.496 116 103.3 116H100.699Z" fill="#420083"/>
<path d="M82.0135 117C79.8906 117 78.1977 116.417 76.9616 115.222C75.6986 114.055 75.0537 112.277 75 109.944V109.444V108.973C75.0537 107.528 75.3493 106.278 75.9405 105.223C76.5317 104.167 77.3378 103.389 78.3589 102.834C79.3801 102.278 80.5892 102 81.9866 102C83.5451 102 84.8619 102.334 85.883 102.972C86.9041 103.639 87.6833 104.5 88.2208 105.611C88.7314 106.723 89 108 89 109.416V110.084C89 110.306 88.9194 110.472 88.812 110.584C88.6775 110.722 88.5164 110.778 88.3282 110.778H79.7294V110.861V110.972C79.7294 111.528 79.8369 112 79.998 112.444C80.1593 112.889 80.4281 113.25 80.7505 113.5C81.073 113.777 81.5029 113.889 81.9866 113.889C82.3359 113.889 82.6315 113.834 82.8733 113.722C83.1152 113.611 83.3302 113.472 83.4914 113.305C83.6526 113.139 83.7601 113 83.8675 112.889C84.0288 112.694 84.1363 112.584 84.2438 112.527C84.3513 112.472 84.5125 112.444 84.7275 112.444H88.0595C88.2208 112.444 88.3819 112.5 88.4895 112.611C88.5969 112.722 88.6507 112.889 88.6507 113.055C88.6238 113.389 88.4626 113.75 88.1939 114.194C87.8983 114.639 87.4684 115.083 86.9309 115.528C86.3935 115.972 85.6948 116.305 84.8887 116.583C84.0557 116.861 83.0883 117 82.0135 117ZM79.7294 108.028H84.2707V107.973C84.2707 107.361 84.1631 106.861 84.002 106.417C83.8407 105.973 83.572 105.64 83.2226 105.39C82.8733 105.167 82.4703 105.028 81.9866 105.028C81.5029 105.028 81.0998 105.167 80.7774 105.39C80.4281 105.64 80.1593 105.973 79.998 106.417C79.81 106.861 79.7294 107.361 79.7294 107.973V108.028Z" fill="#420083"/>
<path d="M56.7075 117C56.4811 117 56.3113 116.944 56.1981 116.802C56.0566 116.66 56 116.491 56 116.292V102.991C56 102.792 56.0566 102.623 56.1981 102.481C56.3113 102.368 56.4811 102.283 56.7075 102.283H59.9623C60.1604 102.283 60.3302 102.368 60.4717 102.481C60.6132 102.623 60.6981 102.792 60.6981 102.991V104.066C61.1509 103.5 61.8019 102.991 62.5943 102.595C63.3868 102.198 64.3207 102 65.3963 102C66.4717 102 67.434 102.255 68.283 102.736C69.1321 103.245 69.783 103.953 70.2642 104.887C70.7453 105.849 71 107.01 71 108.396V116.292C71 116.491 70.9151 116.66 70.8018 116.802C70.6604 116.944 70.4906 117 70.2925 117H66.7264C66.5283 117 66.3584 116.944 66.217 116.802C66.0755 116.66 66.0188 116.491 66.0188 116.292V108.567C66.0188 107.689 65.7925 107.01 65.3679 106.529C64.9434 106.048 64.3207 105.793 63.5 105.793C62.7076 105.793 62.0849 106.048 61.632 106.529C61.1792 107.01 60.9528 107.689 60.9528 108.567V116.292C60.9528 116.491 60.8679 116.66 60.7264 116.802C60.5849 116.944 60.4151 117 60.2452 117H56.7075Z" fill="#420083"/>
<path d="M40.8503 122C40.6791 122 40.5365 121.944 40.4225 121.832C40.3083 121.718 40.2513 121.578 40.2513 121.409C40.2513 121.381 40.2513 121.325 40.2513 121.268C40.2513 121.211 40.2798 121.127 40.3368 121.043L42.5615 115.747L37.0855 102.958C37.0285 102.846 37 102.733 37 102.62C37.0285 102.451 37.114 102.311 37.2281 102.197C37.3422 102.085 37.4848 102 37.656 102H40.9073C41.1355 102 41.3351 102.085 41.4492 102.197C41.5633 102.311 41.6773 102.451 41.7343 102.592L44.9857 110.789L48.3227 102.592C48.3797 102.451 48.4938 102.311 48.6079 102.197C48.722 102.085 48.9215 102 49.1783 102H52.3726C52.5437 102 52.6863 102.085 52.8004 102.197C52.9145 102.311 53 102.451 53 102.592C53 102.705 52.9715 102.818 52.9145 102.958L44.8432 121.409C44.7861 121.578 44.672 121.718 44.558 121.832C44.4153 121.944 44.2157 122 43.9875 122H40.8503Z" fill="#420083"/>
<path d="M21.6744 116C21.4585 116 21.2966 115.947 21.1888 115.812C21.0539 115.679 21 115.518 21 115.331V97.6693C21 97.4817 21.0539 97.3209 21.1888 97.1875C21.2966 97.0809 21.4585 97 21.6744 97H24.8034C24.9653 97 25.1271 97.0809 25.262 97.1875C25.3969 97.3209 25.4778 97.4817 25.4778 97.6693V106.634L29.2273 102.54C29.3352 102.432 29.4432 102.326 29.578 102.218C29.6859 102.138 29.8747 102.085 30.1175 102.085H33.7322C33.894 102.085 34.0289 102.165 34.1368 102.272C34.2446 102.379 34.3256 102.513 34.3256 102.673C34.3256 102.753 34.2987 102.834 34.2717 102.914C34.2446 103.022 34.1907 103.075 34.1098 103.128L29.2543 108.32L34.7842 114.983C34.9191 115.144 35 115.277 35 115.385C35 115.572 34.9191 115.732 34.8111 115.839C34.7033 115.947 34.5414 116 34.3796 116H30.6839C30.4143 116 30.1984 115.973 30.0906 115.867C29.9556 115.759 29.8478 115.652 29.7398 115.545L25.4778 110.461V115.331C25.4778 115.518 25.3969 115.679 25.262 115.812C25.1271 115.947 24.9653 116 24.8034 116H21.6744Z" fill="#420083"/>
<path d="M8.50002 117C6.61425 117 5.06624 116.75 3.82782 116.222C2.58941 115.695 1.63245 115 1.01325 114.139C0.365894 113.306 0.0281457 112.389 0 111.416C0 111.278 0.0562915 111.139 0.168875 111.028C0.281457 110.916 0.450332 110.833 0.619206 110.833H4.16557C4.41888 110.833 4.61591 110.889 4.75663 110.973C4.89736 111.083 5.03809 111.195 5.15068 111.333C5.2914 111.611 5.48843 111.889 5.76988 112.139C6.05133 112.417 6.41723 112.611 6.86756 112.778C7.3179 112.944 7.85267 113.001 8.50002 113.001C9.56955 113.001 10.3858 112.834 10.9487 112.501C11.5116 112.167 11.7931 111.723 11.7931 111.139C11.7931 110.723 11.6242 110.389 11.3428 110.111C11.0332 109.861 10.5546 109.639 9.87913 109.417C9.20366 109.195 8.33115 108.973 7.23346 108.75C5.79803 108.472 4.58776 108.083 3.57451 107.612C2.56126 107.139 1.80132 106.528 1.2947 105.75C0.759935 104.972 0.506623 104.028 0.506623 102.861C0.506623 101.75 0.816227 100.723 1.46358 99.8333C2.11093 98.9448 3.01159 98.2501 4.19372 97.7501C5.34769 97.25 6.72683 97 8.33115 97C9.62585 97 10.7517 97.167 11.7368 97.5C12.7219 97.8331 13.5662 98.2778 14.2417 98.8332C14.9172 99.3895 15.4239 100 15.7617 100.611C16.0994 101.223 16.2964 101.833 16.3245 102.417C16.3245 102.584 16.2682 102.723 16.1557 102.834C16.0431 102.944 15.9023 103.001 15.7335 103.001H12.0183C11.7931 103.001 11.6242 102.972 11.4835 102.889C11.3146 102.834 11.202 102.694 11.0894 102.528C10.9769 102.139 10.6673 101.778 10.1887 101.473C9.71031 101.166 9.09107 101 8.33115 101C7.48677 101 6.83942 101.166 6.38908 101.445C5.93876 101.723 5.71359 102.167 5.71359 102.751C5.71359 103.139 5.82617 103.444 6.07948 103.722C6.33279 104 6.75498 104.25 7.34605 104.444C7.9371 104.667 8.75333 104.861 9.79472 105.084C11.4835 105.417 12.8626 105.806 13.9321 106.278C14.9735 106.75 15.7335 107.362 16.2401 108.112C16.7468 108.861 17 109.806 17 110.916C17 112.194 16.6341 113.278 15.9023 114.167C15.1706 115.084 14.1573 115.778 12.8907 116.278C11.6242 116.778 10.1606 117 8.50002 117Z" fill="#420083"/>
<path d="M201.718 151C201.488 151 201.317 150.939 201.201 150.785C201.058 150.631 201 150.446 201 150.231V135.77C201 135.585 201.058 135.4 201.201 135.246C201.317 135.092 201.488 135 201.718 135H205.022C205.222 135 205.394 135.092 205.539 135.246C205.682 135.4 205.767 135.585 205.767 135.77V137C206.256 136.385 206.86 135.892 207.577 135.523C208.295 135.185 209.099 135 210.019 135H211.282C211.483 135 211.656 135.092 211.799 135.216C211.914 135.369 212 135.554 212 135.77V138.939C212 139.154 211.914 139.338 211.799 139.493C211.656 139.646 211.483 139.708 211.282 139.708H208.496C207.692 139.708 207.089 139.955 206.658 140.415C206.227 140.877 206.026 141.523 206.026 142.354V150.231C206.026 150.446 205.94 150.631 205.797 150.785C205.653 150.939 205.48 151 205.28 151H201.718Z" fill="#420083"/>
<path d="M190.013 151C187.891 151 186.198 150.378 184.962 149.104C183.699 147.86 183.054 145.963 183 143.474V142.941V142.437C183.054 140.896 183.35 139.562 183.941 138.437C184.531 137.311 185.338 136.481 186.359 135.889C187.38 135.296 188.589 135 189.986 135C191.545 135 192.862 135.355 193.883 136.037C194.904 136.748 195.683 137.667 196.22 138.852C196.731 140.037 197 141.4 197 142.911V143.622C197 143.859 196.919 144.037 196.812 144.155C196.677 144.304 196.516 144.363 196.328 144.363H187.729V144.452V144.571C187.729 145.163 187.837 145.667 187.998 146.141C188.159 146.615 188.428 147.001 188.75 147.267C189.073 147.563 189.502 147.682 189.986 147.682C190.336 147.682 190.631 147.622 190.873 147.504C191.115 147.385 191.33 147.238 191.491 147.06C191.652 146.881 191.759 146.734 191.867 146.615C192.029 146.408 192.136 146.289 192.243 146.23C192.351 146.171 192.513 146.141 192.727 146.141H196.059C196.22 146.141 196.382 146.2 196.49 146.318C196.597 146.438 196.65 146.615 196.65 146.793C196.623 147.148 196.462 147.534 196.193 148.007C195.898 148.482 195.468 148.956 194.93 149.43C194.393 149.904 193.694 150.26 192.888 150.556C192.056 150.852 191.088 151 190.013 151ZM187.729 141.429H192.271V141.37C192.271 140.719 192.163 140.185 192.001 139.711C191.841 139.237 191.572 138.881 191.222 138.615C190.873 138.378 190.47 138.23 189.986 138.23C189.502 138.23 189.1 138.378 188.777 138.615C188.428 138.881 188.159 139.237 187.998 139.711C187.81 140.185 187.729 140.719 187.729 141.37V141.429Z" fill="#420083"/>
<path d="M164.708 151C164.481 151 164.311 150.94 164.198 150.788C164.056 150.638 164 150.457 164 150.246V136.057C164 135.845 164.056 135.664 164.198 135.513C164.311 135.392 164.481 135.302 164.708 135.302H167.962C168.16 135.302 168.33 135.392 168.471 135.513C168.613 135.664 168.698 135.845 168.698 136.057V137.204C169.151 136.6 169.801 136.057 170.594 135.634C171.386 135.212 172.321 135 173.396 135C174.471 135 175.434 135.272 176.283 135.785C177.131 136.329 177.783 137.083 178.264 138.079C178.745 139.106 179 140.343 179 141.822V150.246C179 150.457 178.914 150.638 178.802 150.788C178.66 150.94 178.491 151 178.292 151H174.726C174.528 151 174.358 150.94 174.216 150.788C174.076 150.638 174.019 150.457 174.019 150.246V142.004C174.019 141.068 173.793 140.343 173.368 139.83C172.943 139.317 172.321 139.045 171.5 139.045C170.708 139.045 170.084 139.317 169.632 139.83C169.179 140.343 168.953 141.068 168.953 142.004V150.246C168.953 150.457 168.868 150.638 168.726 150.788C168.585 150.94 168.415 151 168.245 151H164.708Z" fill="#420083"/>
<path d="M144.755 151C144.513 151 144.332 150.94 144.212 150.788C144.06 150.638 144 150.457 144 150.246V136.057C144 135.845 144.06 135.664 144.212 135.513C144.332 135.392 144.513 135.302 144.755 135.302H148.226C148.438 135.302 148.619 135.392 148.77 135.513C148.921 135.664 149.011 135.845 149.011 136.057V137.204C149.494 136.6 150.188 136.057 151.033 135.634C151.879 135.212 152.875 135 154.022 135C155.169 135 156.196 135.272 157.101 135.785C158.007 136.329 158.702 137.083 159.215 138.079C159.728 139.106 160 140.343 160 141.822V150.246C160 150.457 159.909 150.638 159.788 150.788C159.637 150.94 159.457 151 159.245 151H155.441C155.229 151 155.049 150.94 154.898 150.788C154.747 150.638 154.687 150.457 154.687 150.246V142.004C154.687 141.068 154.445 140.343 153.992 139.83C153.539 139.317 152.875 139.045 152 139.045C151.155 139.045 150.49 139.317 150.008 139.83C149.525 140.343 149.283 141.068 149.283 142.004V150.246C149.283 150.457 149.193 150.638 149.041 150.788C148.891 150.94 148.709 151 148.528 151H144.755Z" fill="#420083"/>
<path d="M130.559 151C129.501 151 128.529 150.823 127.706 150.408C126.882 149.993 126.206 149.46 125.736 148.748C125.235 148.067 125 147.297 125 146.408C125 145.015 125.559 143.918 126.706 143.089C127.824 142.259 129.353 141.696 131.235 141.4L134.912 140.837V140.423C134.912 139.711 134.765 139.178 134.471 138.793C134.177 138.437 133.618 138.23 132.853 138.23C132.294 138.23 131.853 138.348 131.5 138.556C131.148 138.793 130.883 139.089 130.706 139.444C130.529 139.711 130.265 139.829 129.97 139.829H126.676C126.441 139.829 126.294 139.77 126.176 139.652C126.059 139.533 126 139.356 126.03 139.178C126.03 138.822 126.147 138.437 126.412 137.963C126.676 137.489 127.089 137.044 127.647 136.571C128.177 136.126 128.882 135.741 129.765 135.444C130.618 135.148 131.677 135 132.912 135C134.148 135 135.236 135.148 136.147 135.444C137.029 135.741 137.765 136.155 138.353 136.689C138.912 137.222 139.324 137.874 139.589 138.585C139.853 139.297 140 140.096 140 140.956V149.964C140 150.17 139.912 150.349 139.766 150.496C139.618 150.645 139.441 150.704 139.265 150.704H135.853C135.618 150.704 135.442 150.645 135.324 150.496C135.177 150.349 135.118 150.17 135.118 149.964V148.926C134.853 149.311 134.5 149.666 134.089 149.964C133.647 150.289 133.147 150.556 132.559 150.733C131.971 150.911 131.323 151 130.559 151ZM131.942 147.622C132.5 147.622 133.001 147.504 133.471 147.267C133.941 147.03 134.294 146.644 134.559 146.111C134.824 145.577 134.971 144.926 134.971 144.126V143.712L132.471 144.155C131.529 144.334 130.853 144.571 130.441 144.896C130.03 145.222 129.824 145.608 129.824 146.022C129.824 146.378 129.912 146.644 130.118 146.881C130.295 147.119 130.559 147.326 130.883 147.444C131.206 147.563 131.559 147.622 131.942 147.622Z" fill="#420083"/>
<path d="M115.471 151C114.029 151 112.789 150.733 111.693 150.2C110.596 149.667 109.702 148.897 109.067 147.889C108.433 146.881 108.086 145.637 108.029 144.215C108 143.918 108 143.504 108 143.03C108 142.555 108 142.141 108.029 141.815C108.086 140.393 108.433 139.148 109.067 138.14C109.702 137.134 110.568 136.334 111.664 135.8C112.76 135.267 114.029 135 115.471 135C116.798 135 117.923 135.208 118.875 135.592C119.827 135.977 120.606 136.452 121.183 137.015C121.76 137.607 122.221 138.2 122.509 138.793C122.799 139.385 122.971 139.919 123 140.363C123 140.57 122.943 140.748 122.799 140.896C122.625 141.045 122.452 141.104 122.28 141.104H118.616C118.385 141.104 118.24 141.074 118.125 140.956C118.01 140.866 117.894 140.719 117.808 140.511C117.577 139.919 117.26 139.474 116.913 139.207C116.567 138.97 116.106 138.822 115.557 138.822C114.779 138.822 114.173 139.089 113.77 139.593C113.365 140.126 113.134 140.896 113.106 141.963C113.077 142.763 113.077 143.474 113.106 144.067C113.163 145.163 113.394 145.963 113.798 146.438C114.202 146.94 114.779 147.178 115.557 147.178C116.135 147.178 116.625 147.06 116.972 146.793C117.318 146.526 117.577 146.081 117.808 145.489C117.894 145.312 118.01 145.163 118.125 145.045C118.24 144.955 118.385 144.896 118.616 144.896H122.28C122.452 144.896 122.625 144.985 122.799 145.104C122.943 145.252 123 145.43 123 145.637C122.971 145.963 122.885 146.348 122.712 146.793C122.539 147.267 122.251 147.741 121.904 148.215C121.529 148.719 121.039 149.164 120.462 149.578C119.885 149.993 119.164 150.349 118.356 150.615C117.52 150.882 116.567 151 115.471 151Z" fill="#420083"/>
<path d="M96.4999 151C94.614 151 93.0661 150.737 91.8277 150.183C90.5894 149.629 89.6324 148.9 89.0132 147.995C88.3659 147.12 88.0281 146.158 88 145.137C88 144.991 88.0563 144.846 88.1688 144.728C88.2815 144.612 88.4503 144.525 88.6192 144.525H92.1654C92.4188 144.525 92.6158 144.583 92.7565 144.67C92.8972 144.788 93.038 144.904 93.1505 145.05C93.2913 145.342 93.4883 145.633 93.7697 145.896C94.0512 146.187 94.4171 146.392 94.8674 146.566C95.3178 146.741 95.8525 146.8 96.4999 146.8C97.5693 146.8 98.3854 146.624 98.9481 146.275C99.5109 145.925 99.7932 145.458 99.7932 144.846C99.7932 144.408 99.624 144.058 99.3426 143.767C99.0332 143.504 98.5546 143.271 97.8787 143.037C97.2038 142.804 96.331 142.57 95.2333 142.337C93.7979 142.045 92.5876 141.637 91.5744 141.141C90.5612 140.645 89.8013 140.004 89.2947 139.187C88.7599 138.371 88.5066 137.379 88.5066 136.153C88.5066 134.987 88.8162 133.908 89.4635 132.975C90.1109 132.041 91.0115 131.313 92.1936 130.788C93.3476 130.263 94.7267 130 96.331 130C97.6254 130 98.7518 130.174 99.7361 130.525C100.721 130.875 101.566 131.342 102.241 131.925C102.917 132.508 103.424 133.149 103.761 133.792C104.099 134.433 104.296 135.074 104.324 135.687C104.324 135.862 104.268 136.008 104.155 136.124C104.043 136.241 103.902 136.3 103.733 136.3H100.018C99.7932 136.3 99.624 136.271 99.4828 136.183C99.3146 136.124 99.2014 135.979 99.0893 135.804C98.9762 135.396 98.6667 135.016 98.1881 134.695C97.7105 134.375 97.0907 134.199 96.331 134.199C95.4866 134.199 94.8392 134.375 94.3889 134.666C93.9386 134.958 93.7135 135.425 93.7135 136.037C93.7135 136.446 93.826 136.767 94.0793 137.058C94.3327 137.35 94.7548 137.612 95.3459 137.817C95.9369 138.05 96.7532 138.253 97.7946 138.487C99.4828 138.837 100.863 139.245 101.932 139.741C102.973 140.237 103.733 140.879 104.24 141.666C104.747 142.454 105 143.446 105 144.612C105 145.954 104.634 147.091 103.902 148.025C103.171 148.987 102.157 149.716 100.891 150.241C99.624 150.767 98.1601 151 96.4999 151Z" fill="#420083"/>
</svg>
