<svg width="15" height="15" viewBox="0 0 15 15" fill="none" xmlns="http://www.w3.org/2000/svg">
<path d="M9.27015 2.51172L1.01084 10.7716C0.969291 10.8133 0.939288 10.8659 0.925 10.9225L0.00953551 14.5969C-0.0178487 14.7076 0.0146552 14.8252 0.0953789 14.9059C0.156458 14.967 0.239682 15.0008 0.324811 15.0008C0.350885 15.0008 0.377555 14.9976 0.40351 14.991L4.07799 14.0755C4.13526 14.0612 4.18729 14.0313 4.22884 13.9897L12.4889 5.73043L9.27015 2.51172Z" fill="#420083"/>
<path d="M14.5307 1.38003L13.6113 0.460635C12.9968 -0.153842 11.9259 -0.153247 11.3121 0.460635L10.1859 1.58684L13.4045 4.80543L14.5307 3.67923C14.8376 3.37241 15.0067 2.96402 15.0067 2.52969C15.0067 2.09535 14.8376 1.68697 14.5307 1.38003Z" fill="#420083"/>
</svg>
