<svg width="21" height="20" viewBox="0 0 21 20" fill="none" xmlns="http://www.w3.org/2000/svg">
<path d="M11.5864 0H8.42649V8.38512H0V11.5295H8.42649V19.9147H11.5864V11.5295H20.0129V8.38512H11.5864V0Z" fill="#FF4B55"/>
<path d="M5.4105 12.5743L0.0292969 16.0512C0.0720588 16.4272 0.162742 16.7886 0.295367 17.1293L7.34518 12.5742L5.4105 12.5743Z" fill="#FF4B55"/>
<path d="M13.4667 12.5743L19.8609 16.7057C19.9613 16.3393 20.0152 15.9539 20.0152 15.5558V15.5554L15.4014 12.5742L13.4667 12.5743Z" fill="#FF4B55"/>
<path d="M6.31986 7.33493L0.121719 3.33008C0.042332 3.6583 0 4.00089 0 4.35335V4.50147L4.38517 7.33493H6.31986Z" fill="#FF4B55"/>
<path d="M14.5738 7.3319L19.982 3.83744C19.9378 3.46221 19.8459 3.10154 19.7122 2.76172L12.6392 7.3319H14.5738Z" fill="#FF4B55"/>
</svg>
