<svg width="468" height="80" viewBox="0 0 468 80" fill="none" xmlns="http://www.w3.org/2000/svg">
<path d="M451.382 47.4885C451.16 47.4885 450.975 47.4146 450.827 47.267C450.679 47.1193 450.606 46.9347 450.606 46.7132C450.606 46.6763 450.606 46.6024 450.606 46.5286C450.606 46.4546 450.643 46.3439 450.717 46.2331L453.597 39.2917L446.508 22.5288C446.435 22.3811 446.397 22.2334 446.397 22.0858C446.435 21.8641 446.545 21.6795 446.692 21.5319C446.84 21.3842 447.025 21.2734 447.247 21.2734H451.455C451.751 21.2734 452.01 21.3842 452.158 21.5319C452.305 21.6795 452.453 21.8641 452.527 22.0489L456.735 32.7933L461.055 22.0489C461.129 21.8641 461.277 21.6795 461.425 21.5319C461.572 21.3842 461.83 21.2734 462.163 21.2734H466.298C466.519 21.2734 466.705 21.3842 466.852 21.5319C467 21.6795 467.11 21.8641 467.11 22.0489C467.11 22.1965 467.074 22.3442 467 22.5288L456.55 46.7132C456.476 46.9347 456.329 47.1193 456.181 47.267C455.997 47.4146 455.738 47.4885 455.442 47.4885H451.382Z" fill="#420083"/>
<path d="M438.919 40.471C437.331 40.471 435.964 40.2495 434.821 39.7325C433.675 39.2156 432.789 38.4402 432.199 37.3694C431.57 36.2987 431.275 34.8957 431.275 33.1972V26.108H428.395C428.1 26.108 427.879 26.0341 427.695 25.8495C427.509 25.7019 427.436 25.4804 427.436 25.185V22.1943C427.436 21.9358 427.509 21.7142 427.695 21.5296C427.879 21.3819 428.1 21.2712 428.395 21.2712H431.275V15.1789C431.275 14.9205 431.349 14.6989 431.534 14.5143C431.718 14.3666 431.939 14.2559 432.199 14.2559H436.481C436.74 14.2559 436.962 14.3666 437.146 14.5143C437.293 14.6989 437.405 14.9205 437.405 15.1789V21.2712H442.02C442.278 21.2712 442.499 21.3819 442.685 21.5296C442.87 21.7142 442.98 21.9358 442.98 22.1943V25.185C442.98 25.4804 442.87 25.7019 442.685 25.8495C442.499 26.0341 442.278 26.108 442.02 26.108H437.405V32.6803C437.405 33.5294 437.552 34.1941 437.885 34.674C438.181 35.191 438.734 35.4125 439.51 35.4125H442.352C442.611 35.4125 442.832 35.5233 443.018 35.6709C443.165 35.8557 443.275 36.0772 443.275 36.3356V39.5479C443.275 39.8063 443.165 40.0278 443.018 40.2125C442.832 40.3971 442.611 40.471 442.352 40.471H438.919Z" fill="#420083"/>
<path d="M417.973 40.4761C417.677 40.4761 417.456 40.4022 417.308 40.2176C417.124 40.033 417.049 39.8114 417.049 39.553V22.1993C417.049 21.9409 417.124 21.7193 417.308 21.5347C417.456 21.387 417.677 21.2763 417.973 21.2763H422.329C422.588 21.2763 422.81 21.387 422.995 21.5347C423.143 21.7193 423.253 21.9409 423.253 22.1993V39.553C423.253 39.8114 423.143 40.033 422.995 40.2176C422.81 40.4022 422.588 40.4761 422.329 40.4761H417.973ZM417.937 18.507C417.641 18.507 417.42 18.4332 417.272 18.2486C417.087 18.1009 417.013 17.8794 417.013 17.5841V14.261C417.013 14.0394 417.087 13.8179 417.272 13.6333C417.42 13.4487 417.641 13.3379 417.937 13.3379H422.367C422.588 13.3379 422.81 13.4487 422.995 13.6333C423.179 13.8179 423.29 14.0394 423.29 14.261V17.5841C423.29 17.8794 423.179 18.1009 422.995 18.2486C422.81 18.4332 422.588 18.507 422.367 18.507H417.937Z" fill="#420083"/>
<path d="M405.933 40.471C405.637 40.471 405.416 40.3971 405.268 40.2125C405.083 40.0278 405.009 39.8063 405.009 39.5479V15.1789C405.009 14.9205 405.083 14.6989 405.268 14.5143C405.416 14.3666 405.637 14.2559 405.933 14.2559H410.289C410.548 14.2559 410.77 14.3666 410.954 14.5143C411.101 14.6989 411.213 14.9205 411.213 15.1789V39.5479C411.213 39.8063 411.101 40.0278 410.954 40.2125C410.77 40.3971 410.548 40.471 410.289 40.471H405.933Z" fill="#420083"/>
<path d="M393.892 40.4761C393.596 40.4761 393.375 40.4022 393.227 40.2176C393.042 40.033 392.968 39.8114 392.968 39.553V22.1993C392.968 21.9409 393.042 21.7193 393.227 21.5347C393.375 21.387 393.596 21.2763 393.892 21.2763H398.248C398.507 21.2763 398.729 21.387 398.913 21.5347C399.06 21.7193 399.172 21.9409 399.172 22.1993V39.553C399.172 39.8114 399.06 40.033 398.913 40.2176C398.729 40.4022 398.507 40.4761 398.248 40.4761H393.892ZM393.854 18.507C393.559 18.507 393.337 18.4332 393.19 18.2486C393.006 18.1009 392.932 17.8794 392.932 17.5841V14.261C392.932 14.0394 393.006 13.8179 393.19 13.6333C393.337 13.4487 393.559 13.3379 393.854 13.3379H398.286C398.507 13.3379 398.729 13.4487 398.913 13.6333C399.098 13.8179 399.208 14.0394 399.208 14.261V17.5841C399.208 17.8794 399.098 18.1009 398.913 18.2486C398.729 18.4332 398.507 18.507 398.286 18.507H393.854Z" fill="#420083"/>
<path d="M379.94 40.8401C378.573 40.8401 377.428 40.6186 376.506 40.1387C375.546 39.6956 374.807 39.1049 374.217 38.3664V39.5479C374.217 39.8063 374.105 40.0278 373.921 40.2125C373.736 40.3971 373.515 40.471 373.293 40.471H369.121C368.825 40.471 368.604 40.3971 368.456 40.2125C368.272 40.0278 368.198 39.8063 368.198 39.5479V15.1789C368.198 14.9205 368.272 14.6989 368.456 14.5143C368.604 14.3666 368.825 14.2559 369.121 14.2559H373.626C373.884 14.2559 374.105 14.3666 374.291 14.5143C374.438 14.6989 374.548 14.9205 374.548 15.1789V23.0804C375.139 22.4527 375.915 21.9358 376.801 21.5296C377.687 21.1235 378.721 20.902 379.94 20.902C381.157 20.902 382.229 21.1235 383.188 21.5296C384.148 21.9358 384.961 22.5265 385.625 23.265C386.29 24.0034 386.806 24.9265 387.176 25.9972C387.545 27.068 387.73 28.2495 387.804 29.5419C387.804 30.0587 387.84 30.5019 387.84 30.8711C387.84 31.2402 387.804 31.6834 387.804 32.1633C387.73 33.5663 387.545 34.7849 387.176 35.8557C386.806 36.9264 386.253 37.8494 385.589 38.5879C384.924 39.3264 384.112 39.9171 383.188 40.2864C382.229 40.6556 381.157 40.8401 379.94 40.8401ZM377.945 35.8926C378.758 35.8926 379.423 35.7448 379.902 35.3756C380.345 35.0433 380.678 34.5633 380.9 33.9726C381.121 33.3818 381.231 32.7542 381.305 32.0157C381.343 31.2772 381.343 30.5019 381.305 29.7265C381.231 29.0249 381.121 28.3604 380.9 27.7695C380.678 27.1787 380.345 26.7357 379.902 26.3665C379.423 26.0341 378.758 25.8495 377.945 25.8495C377.17 25.8495 376.542 26.0341 376.063 26.3665C375.546 26.6988 375.177 27.1418 374.955 27.6588C374.696 28.1756 374.548 28.7665 374.548 29.3573C374.512 29.8372 374.512 30.2802 374.512 30.7234C374.512 31.1664 374.512 31.6465 374.548 32.1264C374.586 32.7911 374.734 33.4187 374.955 33.9726C375.177 34.5633 375.508 35.0064 376.025 35.3756C376.506 35.7448 377.133 35.8926 377.945 35.8926Z" fill="#420083"/>
<path d="M357.081 40.4761C356.786 40.4761 356.564 40.4022 356.417 40.2176C356.231 40.033 356.157 39.8114 356.157 39.553V22.1993C356.157 21.9409 356.231 21.7193 356.417 21.5347C356.564 21.387 356.786 21.2763 357.081 21.2763H361.437C361.697 21.2763 361.918 21.387 362.102 21.5347C362.251 21.7193 362.361 21.9409 362.361 22.1993V39.553C362.361 39.8114 362.251 40.033 362.102 40.2176C361.918 40.4022 361.697 40.4761 361.437 40.4761H357.081ZM357.045 18.507C356.748 18.507 356.527 18.4332 356.379 18.2486C356.195 18.1009 356.121 17.8794 356.121 17.5841V14.261C356.121 14.0394 356.195 13.8179 356.379 13.6333C356.527 13.4487 356.748 13.3379 357.045 13.3379H361.475C361.697 13.3379 361.918 13.4487 362.102 13.6333C362.287 13.8179 362.399 14.0394 362.399 14.261V17.5841C362.399 17.8794 362.287 18.1009 362.102 18.2486C361.918 18.4332 361.697 18.507 361.475 18.507H357.045Z" fill="#420083"/>
<path d="M342.169 40.8465C340.545 40.8465 339.18 40.6988 338.072 40.3295C336.963 39.9603 336.041 39.5172 335.339 39.0003C334.638 38.4833 334.121 37.9665 333.788 37.4126C333.419 36.8588 333.235 36.3787 333.235 35.9357C333.198 35.6773 333.272 35.4558 333.493 35.2711C333.678 35.1234 333.9 35.0126 334.121 35.0126H338.33C338.404 35.0126 338.442 35.0496 338.515 35.0496C338.589 35.0865 338.663 35.1234 338.737 35.1972C339.032 35.382 339.364 35.6035 339.697 35.8619C339.992 36.1203 340.361 36.3418 340.804 36.5266C341.21 36.7481 341.726 36.8219 342.319 36.8219C342.983 36.8219 343.574 36.7111 344.053 36.4158C344.496 36.1203 344.755 35.7142 344.755 35.1972C344.755 34.828 344.644 34.4958 344.422 34.2372C344.201 33.9788 343.722 33.7204 343.057 33.462C342.391 33.2404 341.357 32.9819 340.028 32.7235C338.737 32.4281 337.629 32.0588 336.668 31.5789C335.708 31.0989 334.97 30.4712 334.453 29.6958C333.936 28.9203 333.678 27.9605 333.678 26.8528C333.678 25.8928 333.974 24.9328 334.638 24.0097C335.265 23.1236 336.189 22.3851 337.444 21.7944C338.663 21.2035 340.176 20.9082 342.022 20.9082C343.426 20.9082 344.644 21.0928 345.715 21.425C346.749 21.7575 347.635 22.1635 348.373 22.6805C349.075 23.1974 349.628 23.7513 349.997 24.2681C350.367 24.8221 350.552 25.302 350.588 25.7451C350.588 26.0036 350.514 26.2251 350.367 26.4097C350.183 26.5942 349.997 26.6681 349.776 26.6681H345.937C345.825 26.6681 345.715 26.6681 345.641 26.6312C345.53 26.5942 345.456 26.5573 345.382 26.4835C345.087 26.3358 344.791 26.1512 344.496 25.8928C344.201 25.6712 343.832 25.4497 343.462 25.2281C343.057 25.0436 342.576 24.9328 341.986 24.9328C341.321 24.9328 340.804 25.0805 340.435 25.3758C340.066 25.6712 339.881 26.0774 339.881 26.5204C339.881 26.8528 339.954 27.1482 340.176 27.4066C340.397 27.7019 340.804 27.9236 341.469 28.1451C342.133 28.3666 343.131 28.625 344.534 28.8834C346.232 29.1789 347.561 29.6219 348.595 30.2128C349.592 30.8034 350.293 31.505 350.736 32.3174C351.179 33.1295 351.4 33.9419 351.4 34.828C351.4 36.0096 351.031 37.0803 350.331 37.9665C349.592 38.8896 348.558 39.591 347.192 40.108C345.825 40.6248 344.165 40.8465 342.169 40.8465Z" fill="#420083"/>
<path d="M320.286 40.8465C318.662 40.8465 317.295 40.6988 316.187 40.3295C315.08 39.9603 314.156 39.5172 313.456 39.0003C312.753 38.4833 312.237 37.9665 311.905 37.4126C311.536 36.8588 311.351 36.3787 311.351 35.9357C311.314 35.6773 311.388 35.4558 311.61 35.2711C311.794 35.1234 312.015 35.0126 312.237 35.0126H316.447C316.521 35.0126 316.557 35.0496 316.631 35.0496C316.704 35.0865 316.778 35.1234 316.852 35.1972C317.147 35.382 317.48 35.6035 317.812 35.8619C318.107 36.1203 318.476 36.3418 318.919 36.5266C319.326 36.7481 319.843 36.8219 320.434 36.8219C321.098 36.8219 321.689 36.7111 322.17 36.4158C322.613 36.1203 322.87 35.7142 322.87 35.1972C322.87 34.828 322.76 34.4958 322.539 34.2372C322.317 33.9788 321.837 33.7204 321.172 33.462C320.508 33.2404 319.474 32.9819 318.145 32.7235C316.852 32.4281 315.744 32.0588 314.785 31.5789C313.825 31.0989 313.086 30.4712 312.57 29.6958C312.053 28.9203 311.794 27.9605 311.794 26.8528C311.794 25.8928 312.089 24.9328 312.753 24.0097C313.382 23.1236 314.304 22.3851 315.561 21.7944C316.778 21.2035 318.293 20.9082 320.138 20.9082C321.541 20.9082 322.76 21.0928 323.83 21.425C324.864 21.7575 325.751 22.1635 326.49 22.6805C327.19 23.1974 327.745 23.7513 328.114 24.2681C328.483 24.8221 328.667 25.302 328.705 25.7451C328.705 26.0036 328.631 26.2251 328.483 26.4097C328.298 26.5942 328.114 26.6681 327.893 26.6681H324.052C323.942 26.6681 323.83 26.6681 323.756 26.6312C323.646 26.5942 323.572 26.5573 323.499 26.4835C323.203 26.3358 322.908 26.1512 322.613 25.8928C322.317 25.6712 321.948 25.4497 321.579 25.2281C321.172 25.0436 320.693 24.9328 320.102 24.9328C319.436 24.9328 318.919 25.0805 318.55 25.3758C318.181 25.6712 317.997 26.0774 317.997 26.5204C317.997 26.8528 318.071 27.1482 318.293 27.4066C318.514 27.7019 318.919 27.9236 319.584 28.1451C320.25 28.3666 321.246 28.625 322.649 28.8834C324.347 29.1789 325.678 29.6219 326.711 30.2128C327.707 30.8034 328.409 31.505 328.852 32.3174C329.295 33.1295 329.517 33.9419 329.517 34.828C329.517 36.0096 329.148 37.0803 328.446 37.9665C327.707 38.8896 326.674 39.591 325.308 40.108C323.942 40.6248 322.28 40.8465 320.286 40.8465Z" fill="#420083"/>
<path d="M297.844 40.8465C294.927 40.8465 292.602 40.0711 290.902 38.4833C289.167 36.9326 288.281 34.5696 288.208 31.4681V30.8034V30.1758C288.281 28.2558 288.687 26.5942 289.499 25.1912C290.311 23.7882 291.419 22.7544 292.823 22.0159C294.226 21.2774 295.886 20.9082 297.808 20.9082C299.949 20.9082 301.757 21.3512 303.161 22.2005C304.564 23.0866 305.634 24.2312 306.373 25.7081C307.075 27.1851 307.444 28.8834 307.444 30.7665V31.6527C307.444 31.948 307.332 32.1697 307.185 32.3174C307.001 32.5019 306.779 32.5758 306.52 32.5758H294.705V32.6865V32.8342C294.705 33.5727 294.853 34.2003 295.074 34.7911C295.296 35.382 295.665 35.8619 296.108 36.1941C296.551 36.5635 297.142 36.7111 297.808 36.7111C298.287 36.7111 298.694 36.6373 299.025 36.4896C299.358 36.3418 299.654 36.1572 299.875 35.9357C300.097 35.7142 300.244 35.5296 300.392 35.382C300.613 35.1234 300.761 34.9757 300.909 34.9019C301.056 34.828 301.278 34.7911 301.573 34.7911H306.151C306.373 34.7911 306.594 34.865 306.742 35.0126C306.889 35.1603 306.963 35.382 306.963 35.6035C306.927 36.0465 306.706 36.5266 306.336 37.1172C305.93 37.7081 305.339 38.2987 304.601 38.8896C303.862 39.4803 302.902 39.9234 301.795 40.2926C300.65 40.6618 299.321 40.8465 297.844 40.8465ZM294.705 28.9203H300.945V28.8465C300.945 28.0343 300.797 27.3697 300.576 26.7788C300.354 26.1882 299.985 25.7451 299.506 25.4127C299.025 25.1174 298.472 24.9328 297.808 24.9328C297.142 24.9328 296.589 25.1174 296.146 25.4127C295.665 25.7451 295.296 26.1882 295.074 26.7788C294.817 27.3697 294.705 28.0343 294.705 28.8465V28.9203Z" fill="#420083"/>
<path d="M274.555 40.8465C272.709 40.8465 271.121 40.5141 269.718 39.8496C268.315 39.1849 267.17 38.2249 266.357 36.9696C265.545 35.7142 265.102 34.1634 265.028 32.3912C264.991 32.0219 264.991 31.505 264.991 30.9142C264.991 30.3235 264.991 29.8065 265.028 29.4004C265.102 27.6281 265.545 26.0774 266.357 24.8221C267.17 23.5666 268.277 22.5698 269.68 21.9051C271.083 21.2405 272.709 20.9082 274.555 20.9082C276.253 20.9082 277.693 21.1666 278.911 21.6467C280.13 22.1266 281.126 22.7175 281.864 23.4189C282.604 24.1574 283.195 24.8959 283.564 25.6342C283.933 26.3727 284.155 27.0374 284.191 27.5912C284.191 27.8496 284.117 28.0712 283.933 28.2558C283.712 28.4404 283.49 28.5143 283.269 28.5143H278.579C278.284 28.5143 278.099 28.4773 277.951 28.3297C277.803 28.2189 277.656 28.0343 277.546 27.7758C277.25 27.0374 276.844 26.4835 276.4 26.1512C275.957 25.8559 275.367 25.6712 274.665 25.6712C273.669 25.6712 272.893 26.0036 272.376 26.6312C271.859 27.2958 271.564 28.2558 271.526 29.585C271.49 30.5819 271.49 31.4681 271.526 32.2066C271.6 33.5727 271.897 34.5696 272.413 35.1603C272.93 35.7881 273.669 36.0834 274.665 36.0834C275.403 36.0834 276.031 35.9357 276.474 35.6035C276.917 35.2711 277.25 34.7173 277.546 33.9788C277.656 33.7573 277.803 33.5727 277.951 33.425C278.099 33.3143 278.284 33.2404 278.579 33.2404H283.269C283.49 33.2404 283.712 33.3512 283.933 33.4989C284.117 33.6835 284.191 33.905 284.191 34.1634C284.155 34.5696 284.043 35.0496 283.822 35.6035C283.6 36.1941 283.231 36.785 282.788 37.3757C282.307 38.0034 281.68 38.5573 280.942 39.0742C280.204 39.591 279.28 40.0342 278.246 40.3664C277.177 40.6988 275.957 40.8465 274.555 40.8465Z" fill="#420083"/>
<path d="M251.309 40.8465C249.463 40.8465 247.875 40.5141 246.472 39.8496C245.069 39.1849 243.924 38.2249 243.111 36.9696C242.299 35.7142 241.856 34.1634 241.782 32.3912C241.746 32.0219 241.746 31.505 241.746 30.9142C241.746 30.3235 241.746 29.8065 241.782 29.4004C241.856 27.6281 242.299 26.0774 243.111 24.8221C243.924 23.5666 245.031 22.5698 246.436 21.9051C247.838 21.2405 249.463 20.9082 251.309 20.9082C253.007 20.9082 254.447 21.1666 255.665 21.6467C256.884 22.1266 257.881 22.7175 258.62 23.4189C259.358 24.1574 259.949 24.8959 260.318 25.6342C260.687 26.3727 260.909 27.0374 260.945 27.5912C260.945 27.8496 260.871 28.0712 260.687 28.2558C260.466 28.4404 260.244 28.5143 260.023 28.5143H255.333C255.038 28.5143 254.853 28.4773 254.705 28.3297C254.557 28.2189 254.41 28.0343 254.3 27.7758C254.004 27.0374 253.597 26.4835 253.154 26.1512C252.711 25.8559 252.121 25.6712 251.42 25.6712C250.423 25.6712 249.647 26.0036 249.13 26.6312C248.613 27.2958 248.318 28.2558 248.281 29.585C248.244 30.5819 248.244 31.4681 248.281 32.2066C248.355 33.5727 248.651 34.5696 249.167 35.1603C249.684 35.7881 250.423 36.0834 251.42 36.0834C252.158 36.0834 252.785 35.9357 253.228 35.6035C253.671 35.2711 254.004 34.7173 254.3 33.9788C254.41 33.7573 254.557 33.5727 254.705 33.425C254.853 33.3143 255.038 33.2404 255.333 33.2404H260.023C260.244 33.2404 260.466 33.3512 260.687 33.4989C260.871 33.6835 260.945 33.905 260.945 34.1634C260.909 34.5696 260.797 35.0496 260.576 35.6035C260.354 36.1941 259.985 36.785 259.542 37.3757C259.063 38.0034 258.434 38.5573 257.696 39.0742C256.958 39.591 256.036 40.0342 255 40.3664C253.93 40.6988 252.711 40.8465 251.309 40.8465Z" fill="#420083"/>
<path d="M213.745 40.4669C213.522 40.4669 213.338 40.3931 213.19 40.2454C213.042 40.0977 212.969 39.9131 212.969 39.6916C212.969 39.5809 212.969 39.47 213.005 39.3592L221.683 15.6549C221.756 15.3965 221.904 15.175 222.126 14.9534C222.347 14.7319 222.679 14.6211 223.122 14.6211H228.587C228.992 14.6211 229.325 14.7319 229.547 14.9534C229.768 15.175 229.954 15.3965 230.028 15.6549L238.666 39.3592C238.704 39.47 238.74 39.5809 238.74 39.6916C238.74 39.9131 238.63 40.0977 238.482 40.2454C238.335 40.3931 238.149 40.4669 237.928 40.4669H233.386C233.017 40.4669 232.722 40.3931 232.538 40.2085C232.353 40.0239 232.243 39.8393 232.205 39.6916L230.766 35.9255H220.907L219.504 39.6916C219.43 39.8393 219.32 40.0239 219.172 40.2085C218.987 40.3931 218.692 40.4669 218.285 40.4669H213.745ZM222.421 30.6086H229.288L225.855 20.861L222.421 30.6086Z" fill="#420083"/>
<path d="M205.923 40.471C204.335 40.471 202.968 40.2495 201.824 39.7325C200.679 39.2156 199.793 38.4402 199.202 37.3694C198.574 36.2987 198.279 34.8957 198.279 33.1972V26.108H195.399C195.104 26.108 194.882 26.0341 194.698 25.8495C194.513 25.7019 194.439 25.4804 194.439 25.185V22.1943C194.439 21.9358 194.513 21.7142 194.698 21.5296C194.882 21.3819 195.104 21.2712 195.399 21.2712H198.279V15.1789C198.279 14.9205 198.352 14.6989 198.538 14.5143C198.722 14.3666 198.943 14.2559 199.202 14.2559H203.485C203.744 14.2559 203.965 14.3666 204.149 14.5143C204.297 14.6989 204.408 14.9205 204.408 15.1789V21.2712H209.024C209.282 21.2712 209.503 21.3819 209.688 21.5296C209.874 21.7142 209.984 21.9358 209.984 22.1943V25.185C209.984 25.4804 209.874 25.7019 209.688 25.8495C209.503 26.0341 209.282 26.108 209.024 26.108H204.408V32.6803C204.408 33.5294 204.556 34.1941 204.889 34.674C205.184 35.191 205.737 35.4125 206.513 35.4125H209.355C209.615 35.4125 209.836 35.5233 210.021 35.6709C210.169 35.8557 210.279 36.0772 210.279 36.3356V39.5479C210.279 39.8063 210.169 40.0278 210.021 40.2125C209.836 40.3971 209.615 40.471 209.355 40.471H205.923Z" fill="#420083"/>
<path d="M181.603 40.8465C178.687 40.8465 176.361 40.0711 174.663 38.4833C172.927 36.9326 172.041 34.5696 171.967 31.4681V30.8034V30.1758C172.041 28.2558 172.447 26.5942 173.26 25.1912C174.072 23.7882 175.179 22.7544 176.582 22.0159C177.985 21.2774 179.647 20.9082 181.567 20.9082C183.708 20.9082 185.518 21.3512 186.921 22.2005C188.324 23.0866 189.395 24.2312 190.133 25.7081C190.834 27.1851 191.203 28.8834 191.203 30.7665V31.6527C191.203 31.948 191.093 32.1697 190.945 32.3174C190.76 32.5019 190.539 32.5758 190.281 32.5758H178.466V32.6865V32.8342C178.466 33.5727 178.613 34.2003 178.835 34.7911C179.056 35.382 179.426 35.8619 179.869 36.1941C180.312 36.5635 180.902 36.7111 181.567 36.7111C182.046 36.7111 182.453 36.6373 182.786 36.4896C183.117 36.3418 183.413 36.1572 183.634 35.9357C183.856 35.7142 184.003 35.5296 184.151 35.382C184.373 35.1234 184.52 34.9757 184.668 34.9019C184.816 34.828 185.037 34.7911 185.332 34.7911H189.912C190.133 34.7911 190.355 34.865 190.502 35.0126C190.65 35.1603 190.724 35.382 190.724 35.6035C190.686 36.0465 190.465 36.5266 190.096 37.1172C189.69 37.7081 189.1 38.2987 188.361 38.8896C187.621 39.4803 186.661 39.9234 185.554 40.2926C184.41 40.6618 183.081 40.8465 181.603 40.8465ZM178.466 28.9203H184.706V28.8465C184.706 28.0343 184.558 27.3697 184.336 26.7788C184.115 26.1882 183.746 25.7451 183.265 25.4127C182.786 25.1174 182.231 24.9328 181.567 24.9328C180.902 24.9328 180.348 25.1174 179.905 25.4127C179.426 25.7451 179.056 26.1882 178.835 26.7788C178.576 27.3697 178.466 28.0343 178.466 28.8465V28.9203Z" fill="#420083"/>
<path d="M148.469 40.4772C148.174 40.4772 147.952 40.4033 147.804 40.2188C147.62 40.0342 147.546 39.8127 147.546 39.5541V22.2005C147.546 21.942 147.62 21.7205 147.804 21.536C147.952 21.3881 148.174 21.2774 148.469 21.2774H152.716C152.973 21.2774 153.195 21.3881 153.38 21.536C153.564 21.7205 153.676 21.942 153.676 22.2005V23.6036C154.266 22.8651 155.115 22.2005 156.148 21.6836C157.182 21.1666 158.401 20.9082 159.804 20.9082C161.207 20.9082 162.462 21.2405 163.571 21.8682C164.678 22.5329 165.527 23.4558 166.155 24.6744C166.782 25.9297 167.115 27.4435 167.115 29.2528V39.5541C167.115 39.8127 167.004 40.0342 166.856 40.2188C166.672 40.4033 166.451 40.4772 166.191 40.4772H161.54C161.281 40.4772 161.059 40.4033 160.875 40.2188C160.69 40.0342 160.616 39.8127 160.616 39.5541V29.4743C160.616 28.3297 160.321 27.4435 159.768 26.8159C159.213 26.1882 158.401 25.8559 157.33 25.8559C156.296 25.8559 155.484 26.1882 154.893 26.8159C154.302 27.4435 154.007 28.3297 154.007 29.4743V39.5541C154.007 39.8127 153.897 40.0342 153.712 40.2188C153.528 40.4033 153.306 40.4772 153.085 40.4772H148.469Z" fill="#420083"/>
<path d="M127.613 47.4885C127.392 47.4885 127.207 47.4146 127.059 47.267C126.912 47.1193 126.838 46.9347 126.838 46.7132C126.838 46.6763 126.838 46.6024 126.838 46.5286C126.838 46.4546 126.875 46.3439 126.948 46.2331L129.829 39.2917L122.739 22.5288C122.665 22.3811 122.629 22.2334 122.629 22.0858C122.665 21.8641 122.776 21.6795 122.924 21.5319C123.072 21.3842 123.256 21.2734 123.478 21.2734H127.687C127.982 21.2734 128.241 21.3842 128.389 21.5319C128.536 21.6795 128.684 21.8641 128.758 22.0489L132.967 32.7933L137.287 22.0489C137.361 21.8641 137.508 21.6795 137.656 21.5319C137.804 21.3842 138.062 21.2734 138.395 21.2734H142.53C142.751 21.2734 142.936 21.3842 143.084 21.5319C143.231 21.6795 143.342 21.8641 143.342 22.0489C143.342 22.1965 143.305 22.3442 143.231 22.5288L132.782 46.7132C132.709 46.9347 132.561 47.1193 132.413 47.267C132.228 47.4146 131.97 47.4885 131.675 47.4885H127.613Z" fill="#420083"/>
<path d="M101.879 40.471C101.584 40.471 101.362 40.3971 101.214 40.2125C101.03 40.0278 100.956 39.8063 100.956 39.5479V15.1789C100.956 14.9205 101.03 14.6989 101.214 14.5143C101.362 14.3666 101.584 14.2559 101.879 14.2559H106.162C106.383 14.2559 106.605 14.3666 106.79 14.5143C106.974 14.6989 107.085 14.9205 107.085 15.1789V27.548L112.217 21.8989C112.365 21.7511 112.513 21.6034 112.697 21.4558C112.845 21.345 113.103 21.2712 113.436 21.2712H118.383C118.605 21.2712 118.79 21.3819 118.937 21.5296C119.085 21.6773 119.196 21.8619 119.196 22.0835C119.196 22.1943 119.159 22.305 119.122 22.4158C119.085 22.5634 119.011 22.6373 118.9 22.7111L112.254 29.8741L119.823 39.068C120.008 39.2895 120.119 39.474 120.119 39.6217C120.119 39.8801 120.008 40.1018 119.86 40.2495C119.713 40.3971 119.491 40.471 119.269 40.471H114.211C113.842 40.471 113.546 40.4341 113.399 40.2864C113.214 40.1387 113.066 39.9909 112.919 39.8432L107.085 32.828V39.5479C107.085 39.8063 106.974 40.0278 106.79 40.2125C106.605 40.3971 106.383 40.471 106.162 40.471H101.879Z" fill="#420083"/>
<path d="M85.0476 40.8401C82.5738 40.8401 80.543 40.5079 78.9183 39.8063C77.2938 39.1049 76.0385 38.1818 75.2262 37.0372C74.3769 35.9295 73.9339 34.7111 73.897 33.4187C73.897 33.2341 73.9708 33.0495 74.1185 32.9018C74.2661 32.7542 74.4876 32.6434 74.7092 32.6434H79.3615C79.6938 32.6434 79.9522 32.7172 80.1368 32.828C80.3215 32.9757 80.5061 33.1233 80.6538 33.3079C80.8384 33.6772 81.0968 34.0464 81.4661 34.3787C81.8353 34.748 82.3154 35.0064 82.906 35.2279C83.4969 35.4494 84.1983 35.5233 85.0476 35.5233C86.4506 35.5233 87.5213 35.3018 88.2598 34.8588C88.9983 34.4156 89.3675 33.8249 89.3675 33.0495C89.3675 32.4956 89.146 32.0526 88.7768 31.6834C88.3706 31.351 87.743 31.0557 86.8568 30.7603C85.9706 30.465 84.826 30.1695 83.3861 29.8741C81.503 29.505 79.9153 28.988 78.5861 28.3604C77.2569 27.7326 76.26 26.9203 75.5953 25.8865C74.8939 24.8526 74.5615 23.5973 74.5615 22.0466C74.5615 20.5696 74.9677 19.2035 75.8168 18.022C76.6661 16.8405 77.8476 15.9174 79.3984 15.2527C80.9122 14.5882 82.7215 14.2559 84.826 14.2559C86.5244 14.2559 88.0014 14.4774 89.2937 14.9205C90.5859 15.3635 91.6936 15.9543 92.5798 16.6928C93.4659 17.4312 94.1306 18.2435 94.5736 19.0558C95.0166 19.8682 95.2752 20.6803 95.3121 21.4558C95.3121 21.6773 95.2383 21.8619 95.0905 22.0097C94.9428 22.1573 94.7582 22.2312 94.5367 22.2312H89.6628C89.3675 22.2312 89.146 22.1943 88.9614 22.0835C88.7399 22.0097 88.5921 21.8249 88.4444 21.6034C88.2967 21.0866 87.8907 20.6065 87.2629 20.2004C86.6353 19.7943 85.823 19.5727 84.826 19.5727C83.7184 19.5727 82.8691 19.7943 82.2783 20.1635C81.6876 20.5327 81.3923 21.1235 81.3923 21.8989C81.3923 22.4158 81.5399 22.8219 81.8722 23.1912C82.2045 23.5604 82.7584 23.8926 83.5338 24.1512C84.3091 24.4465 85.3798 24.7049 86.7461 25.0003C88.9614 25.4434 90.7705 25.9603 92.1737 26.588C93.5398 27.2156 94.5367 28.028 95.2014 29.0249C95.8659 30.0218 96.1981 31.2772 96.1981 32.7542C96.1981 34.4525 95.7182 35.8926 94.7582 37.0741C93.7982 38.2925 92.469 39.2156 90.8074 39.8801C89.146 40.5448 87.226 40.8401 85.0476 40.8401Z" fill="#420083"/>
<path d="M222.19 79.4498C221.895 79.4498 221.674 79.376 221.526 79.1912C221.342 79.0066 221.268 78.7851 221.268 78.5267V61.1731C221.268 60.9514 221.342 60.7299 221.526 60.5453C221.674 60.3608 221.895 60.25 222.19 60.25H226.437C226.696 60.25 226.917 60.3608 227.101 60.5453C227.287 60.7299 227.397 60.9514 227.397 61.1731V62.6499C228.025 61.9114 228.799 61.3208 229.723 60.8776C230.647 60.4715 231.681 60.25 232.862 60.25H234.486C234.745 60.25 234.967 60.3607 235.151 60.5084C235.298 60.693 235.41 60.9145 235.41 61.1731V64.976C235.41 65.2345 235.298 65.4561 235.151 65.6407C234.967 65.8253 234.745 65.8991 234.486 65.8991H230.905C229.871 65.8991 229.095 66.1945 228.542 66.7484C227.987 67.3021 227.73 68.0776 227.73 69.0745V78.5267C227.73 78.7851 227.618 79.0066 227.434 79.1912C227.249 79.376 227.027 79.4498 226.77 79.4498H222.19Z" fill="#420083"/>
<path d="M206.741 79.8231C203.824 79.8231 201.499 79.0476 199.799 77.4599C198.065 75.9092 197.179 73.5462 197.105 70.4447V69.78V69.1524C197.179 67.2324 197.584 65.5708 198.396 64.1678C199.208 62.7648 200.316 61.7309 201.72 60.9924C203.123 60.2539 204.784 59.8848 206.705 59.8848C208.846 59.8848 210.654 60.3278 212.059 61.177C213.461 62.0632 214.531 63.2078 215.27 64.6846C215.972 66.1616 216.341 67.86 216.341 69.7431V70.6293C216.341 70.9246 216.23 71.1461 216.082 71.2939C215.898 71.4785 215.676 71.5523 215.417 71.5523H203.602V71.6631V71.8108C203.602 72.5493 203.75 73.1769 203.971 73.7677C204.193 74.3584 204.562 74.8385 205.005 75.1707C205.448 75.54 206.04 75.6877 206.705 75.6877C207.184 75.6877 207.591 75.6139 207.922 75.466C208.255 75.3184 208.551 75.1338 208.772 74.9123C208.994 74.6908 209.141 74.5062 209.289 74.3584C209.511 74.1 209.658 73.9523 209.806 73.8784C209.954 73.8046 210.175 73.7677 210.47 73.7677H215.048C215.27 73.7677 215.491 73.8415 215.639 73.9892C215.786 74.1369 215.86 74.3584 215.86 74.58C215.824 75.023 215.603 75.503 215.233 76.0938C214.827 76.6846 214.236 77.2753 213.498 77.8661C212.759 78.4568 211.799 78.9 210.692 79.2691C209.547 79.6383 208.218 79.8231 206.741 79.8231ZM203.602 67.8969H209.842V67.8231C209.842 67.0109 209.694 66.3462 209.473 65.7554C209.251 65.1647 208.882 64.7216 208.403 64.3893C207.922 64.094 207.369 63.9094 206.705 63.9094C206.04 63.9094 205.486 64.094 205.043 64.3893C204.562 64.7216 204.193 65.1647 203.971 65.7554C203.714 66.3462 203.602 67.0109 203.602 67.8231V67.8969Z" fill="#420083"/>
<path d="M173.597 79.4537C173.301 79.4537 173.08 79.3799 172.932 79.1953C172.748 79.0107 172.675 78.7892 172.675 78.5307V61.177C172.675 60.9186 172.748 60.6971 172.932 60.5124C173.08 60.3647 173.301 60.2539 173.597 60.2539H177.843C178.102 60.2539 178.324 60.3647 178.508 60.5124C178.693 60.6971 178.803 60.9186 178.803 61.177V62.58C179.394 61.8417 180.243 61.177 181.277 60.6602C182.311 60.1432 183.53 59.8848 184.933 59.8848C186.336 59.8848 187.591 60.217 188.698 60.8448C189.806 61.5093 190.656 62.4324 191.282 63.6508C191.911 64.9063 192.244 66.4201 192.244 68.2293V78.5307C192.244 78.7892 192.132 79.0107 191.985 79.1953C191.801 79.3799 191.579 79.4537 191.32 79.4537H186.669C186.409 79.4537 186.188 79.3799 186.003 79.1953C185.819 79.0107 185.745 78.7892 185.745 78.5307V68.4508C185.745 67.3062 185.45 66.4201 184.895 65.7923C184.342 65.1647 183.53 64.8325 182.458 64.8325C181.425 64.8325 180.613 65.1647 180.022 65.7923C179.431 66.4201 179.136 67.3062 179.136 68.4508V78.5307C179.136 78.7892 179.024 79.0107 178.841 79.1953C178.655 79.3799 178.434 79.4537 178.212 79.4537H173.597Z" fill="#420083"/>
<path d="M148.395 79.4537C148.1 79.4537 147.878 79.3799 147.731 79.1953C147.546 79.0107 147.472 78.7892 147.472 78.5307V61.177C147.472 60.9186 147.546 60.6971 147.731 60.5124C147.878 60.3647 148.1 60.2539 148.395 60.2539H152.642C152.9 60.2539 153.121 60.3647 153.306 60.5124C153.49 60.6971 153.602 60.9186 153.602 61.177V62.58C154.192 61.8417 155.041 61.177 156.075 60.6602C157.11 60.1432 158.327 59.8848 159.73 59.8848C161.133 59.8848 162.39 60.217 163.497 60.8448C164.605 61.5093 165.453 62.4324 166.081 63.6508C166.708 64.9063 167.041 66.4201 167.041 68.2293V78.5307C167.041 78.7892 166.931 79.0107 166.782 79.1953C166.598 79.3799 166.377 79.4537 166.118 79.4537H161.466C161.207 79.4537 160.985 79.3799 160.801 79.1953C160.616 79.0107 160.542 78.7892 160.542 78.5307V68.4508C160.542 67.3062 160.247 66.4201 159.694 65.7923C159.139 65.1647 158.327 64.8325 157.257 64.8325C156.224 64.8325 155.41 65.1647 154.819 65.7923C154.229 66.4201 153.933 67.3062 153.933 68.4508V78.5307C153.933 78.7892 153.823 79.0107 153.638 79.1953C153.454 79.3799 153.233 79.4537 153.011 79.4537H148.395Z" fill="#420083"/>
<path d="M129.975 79.8231C128.645 79.8231 127.427 79.6014 126.393 79.0846C125.359 78.5676 124.51 77.9031 123.919 77.0169C123.292 76.1676 122.996 75.2076 122.996 74.0999C122.996 72.3647 123.698 70.9984 125.138 69.9646C126.541 68.9308 128.461 68.2293 130.824 67.86L135.439 67.1586V66.6416C135.439 65.7554 135.254 65.0909 134.885 64.6108C134.516 64.1678 133.815 63.9094 132.855 63.9094C132.153 63.9094 131.599 64.057 131.156 64.3155C130.713 64.6108 130.381 64.9801 130.159 65.4231C129.938 65.7554 129.605 65.9032 129.236 65.9032H125.101C124.805 65.9032 124.621 65.8292 124.473 65.6816C124.325 65.5339 124.252 65.3124 124.288 65.0909C124.288 64.6477 124.436 64.1678 124.769 63.577C125.101 62.9863 125.618 62.4324 126.319 61.8417C126.984 61.2878 127.87 60.8079 128.978 60.4385C130.049 60.0694 131.378 59.8848 132.928 59.8848C134.479 59.8848 135.845 60.0694 136.99 60.4385C138.098 60.8079 139.021 61.3247 139.759 61.9894C140.461 62.6539 140.978 63.4662 141.31 64.3524C141.642 65.2386 141.827 66.2355 141.827 67.3062V78.5307C141.827 78.7892 141.716 79.0107 141.531 79.1953C141.347 79.3799 141.125 79.4537 140.904 79.4537H136.621C136.325 79.4537 136.104 79.3799 135.956 79.1953C135.771 79.0107 135.698 78.7892 135.698 78.5307V77.2384C135.365 77.7185 134.922 78.1615 134.405 78.5307C133.851 78.9369 133.224 79.2692 132.485 79.4907C131.747 79.7122 130.935 79.8231 129.975 79.8231ZM131.71 75.6139C132.412 75.6139 133.039 75.466 133.63 75.1707C134.221 74.8754 134.664 74.3953 134.996 73.7308C135.328 73.0661 135.513 72.2538 135.513 71.257V70.74L132.375 71.2939C131.193 71.5154 130.344 71.8108 129.827 72.2169C129.31 72.6231 129.052 73.103 129.052 73.62C129.052 74.063 129.162 74.3953 129.421 74.6908C129.642 74.9861 129.975 75.2445 130.381 75.3922C130.787 75.54 131.23 75.6139 131.71 75.6139Z" fill="#420083"/>
<path d="M109.793 79.8231C107.947 79.8231 106.359 79.4907 104.956 78.8261C103.553 78.1615 102.408 77.2015 101.596 75.9461C100.784 74.6908 100.34 73.1399 100.267 71.3678C100.23 70.9984 100.23 70.4816 100.23 69.8908C100.23 69.3001 100.23 68.7831 100.267 68.377C100.34 66.6046 100.784 65.054 101.596 63.7986C102.408 62.5431 103.516 61.5462 104.919 60.8817C106.322 60.217 107.947 59.8848 109.793 59.8848C111.491 59.8848 112.931 60.1432 114.15 60.6233C115.368 61.1032 116.365 61.694 117.103 62.3955C117.842 63.134 118.433 63.8725 118.802 64.6108C119.171 65.3493 119.393 66.014 119.43 66.5677C119.43 66.8262 119.356 67.0478 119.171 67.2324C118.95 67.417 118.728 67.4908 118.506 67.4908H113.817C113.522 67.4908 113.337 67.4539 113.19 67.3062C113.042 67.1955 112.894 67.0109 112.783 66.7523C112.488 66.014 112.082 65.4601 111.639 65.1278C111.196 64.8325 110.605 64.6477 109.903 64.6477C108.907 64.6477 108.131 64.9801 107.614 65.6077C107.097 66.2724 106.802 67.2324 106.765 68.5616C106.728 69.5585 106.728 70.4447 106.765 71.183C106.839 72.5493 107.134 73.5462 107.651 74.1369C108.168 74.7646 108.907 75.06 109.903 75.06C110.642 75.06 111.27 74.9123 111.713 74.58C112.156 74.2476 112.488 73.6939 112.783 72.9554C112.894 72.7339 113.042 72.5493 113.19 72.4016C113.337 72.2907 113.522 72.2169 113.817 72.2169H118.506C118.728 72.2169 118.95 72.3278 119.171 72.4754C119.356 72.66 119.43 72.8815 119.43 73.1399C119.393 73.5462 119.282 74.0261 119.06 74.58C118.839 75.1707 118.47 75.7615 118.027 76.3522C117.546 76.98 116.919 77.5337 116.18 78.0507C115.442 78.5676 114.519 79.0107 113.485 79.343C112.414 79.6752 111.196 79.8231 109.793 79.8231Z" fill="#420083"/>
<path d="M85.0476 79.8168C82.5738 79.8168 80.543 79.4845 78.9183 78.7829C77.2938 78.0815 76.0385 77.1584 75.2262 76.0138C74.3769 74.9061 73.9339 73.6876 73.897 72.3953C73.897 72.2107 73.9708 72.0261 74.1185 71.8785C74.2661 71.7308 74.4876 71.6199 74.7092 71.6199H79.3615C79.6938 71.6199 79.9522 71.6939 80.1368 71.8046C80.3215 71.9523 80.5061 72.1 80.6538 72.2846C80.8384 72.6537 81.0968 73.023 81.4661 73.3553C81.8353 73.7245 82.3154 73.9831 82.906 74.2046C83.4969 74.4261 84.1983 74.4999 85.0476 74.4999C86.4506 74.4999 87.5213 74.2784 88.2598 73.8354C88.9983 73.3922 89.3675 72.8015 89.3675 72.0261C89.3675 71.4722 89.146 71.0292 88.7768 70.66C88.3706 70.3276 87.743 70.0323 86.8568 69.7369C85.9706 69.4415 84.826 69.1461 83.3861 68.8508C81.503 68.4816 79.9153 67.9646 78.5861 67.3369C77.2569 66.7093 76.26 65.8969 75.5953 64.8631C74.8939 63.8292 74.5615 62.5739 74.5615 61.0232C74.5615 59.5462 74.9677 58.1801 75.8168 56.9986C76.6661 55.8171 77.8476 54.894 79.3984 54.2293C80.9122 53.5648 82.7215 53.2324 84.826 53.2324C86.5244 53.2324 88.0014 53.4539 89.2937 53.8971C90.5859 54.3401 91.6936 54.9309 92.5798 55.6694C93.4659 56.4078 94.1306 57.2201 94.5736 58.0324C95.0166 58.8448 95.2752 59.657 95.3121 60.4324C95.3121 60.6539 95.2383 60.8385 95.0905 60.9863C94.9428 61.134 94.7582 61.2078 94.5367 61.2078H89.6628C89.3675 61.2078 89.146 61.1709 88.9614 61.0601C88.7399 60.9863 88.5921 60.8016 88.4444 60.5801C88.2967 60.0632 87.8907 59.5831 87.2629 59.177C86.6353 58.7708 85.823 58.5493 84.826 58.5493C83.7184 58.5493 82.8691 58.7708 82.2783 59.1401C81.6876 59.5093 81.3923 60.1001 81.3923 60.8754C81.3923 61.3924 81.5399 61.7985 81.8722 62.1678C82.2045 62.537 82.7584 62.8692 83.5338 63.1278C84.3091 63.4232 85.3798 63.6816 86.7461 63.9769C88.9614 64.4201 90.7705 64.9369 92.1737 65.5647C93.5398 66.1923 94.5367 67.0046 95.2014 68.0015C95.8659 68.9984 96.1981 70.2538 96.1981 71.7308C96.1981 73.4291 95.7182 74.8691 94.7582 76.0507C93.7982 77.2692 92.469 78.1922 90.8074 78.8568C89.146 79.5214 87.226 79.8168 85.0476 79.8168Z" fill="#420083"/>
<path d="M19.0083 6.68117C22.199 3.49086 26.264 1.31829 30.6893 0.438204C35.1147 -0.441884 39.7017 0.0100333 43.8702 1.73681C48.0387 3.46358 51.6016 6.38767 54.1082 10.1393C56.615 13.8909 57.9529 18.3016 57.9529 22.8136C57.9529 27.3257 56.615 31.7364 54.1082 35.4879C51.6016 39.2397 48.0387 42.1637 43.8702 43.8905C39.7017 45.6172 35.1147 46.0692 30.6893 45.1891C26.264 44.3089 22.199 42.1364 19.0083 38.9461C16.8895 36.8277 15.2088 34.3126 14.0622 31.5445C12.9155 28.7766 12.3253 25.8098 12.3253 22.8136C12.3253 19.8174 12.9155 16.8506 14.0622 14.0827C15.2088 11.3146 16.8895 8.7996 19.0083 6.68117ZM22.2429 35.7015C24.7921 38.2516 28.0404 39.9885 31.577 40.6925C35.1135 41.3965 38.7795 41.0358 42.1109 39.6563C45.4426 38.2766 48.2902 35.94 50.2937 32.9418C52.297 29.9437 53.3664 26.4189 53.3664 22.8129C53.3664 19.207 52.297 15.6821 50.2937 12.684C48.2902 9.68585 45.4426 7.34921 42.1109 5.96958C38.7795 4.58996 35.1135 4.22933 31.577 4.93327C28.0404 5.63722 24.7921 7.37415 22.2429 9.92438C18.8328 13.3469 16.9179 17.9815 16.9179 22.8129C16.9179 27.6444 18.8328 32.279 22.2429 35.7015Z" fill="#913BEF"/>
<path d="M0.395041 53.7785L4.15492 57.5361C4.41305 57.7894 4.7602 57.9312 5.12178 57.9312C5.48336 57.9312 5.83052 57.7894 6.08864 57.5361L18.0456 45.5727C18.7694 46.2862 19.746 46.6848 20.7624 46.6815C21.7789 46.678 22.7528 46.273 23.4717 45.5545L24.5146 44.503C22.1167 43.3352 19.9329 41.7714 18.0551 39.8776C16.1634 37.9929 14.5977 35.8074 13.4216 33.4102L12.3788 34.4616C11.6604 35.1807 11.2554 36.1546 11.2519 37.1709C11.2485 38.1874 11.6471 39.164 12.3607 39.8877L0.395041 51.8454C0.14184 52.1037 0 52.4507 0 52.8123C0 53.174 0.14184 53.5204 0.395041 53.7785Z" fill="#913BEF"/>
<path d="M7.24217 66.5488H1.0348C0.760474 66.5491 0.497491 66.6584 0.303511 66.8523C0.109532 67.0462 0.000384484 67.3093 0 67.5836V79.999H8.27697V67.5836C8.2766 67.3093 8.16744 67.0462 7.97347 66.8523C7.77948 66.6584 7.5165 66.5491 7.24217 66.5488Z" fill="#420083"/>
<path d="M23.7954 52.0566H17.588C17.3137 52.0569 17.0506 52.1662 16.8567 52.3601C16.6628 52.554 16.5535 52.8171 16.5532 53.0914V79.9913H24.8301V53.0914C24.8298 52.8171 24.7206 52.554 24.5266 52.3601C24.3327 52.1662 24.0696 52.0569 23.7954 52.0566Z" fill="#420083"/>
<path d="M40.3579 58.2715H34.1505C33.8762 58.2718 33.6131 58.381 33.4192 58.575C33.2253 58.7689 33.116 59.0318 33.1157 59.3062V79.9994H41.3926V59.3077C41.3926 59.0332 41.2837 58.7698 41.0896 58.5754C40.8957 58.3812 40.6324 58.2718 40.3579 58.2715Z" fill="#420083"/>
<path d="M56.9114 49.9961H50.704C50.4296 49.9964 50.1666 50.1056 49.9727 50.2996C49.7786 50.4935 49.6695 50.7566 49.6691 51.0308V80.0002H57.949V51.0308C57.9488 50.8948 57.922 50.7601 57.8697 50.6344C57.8176 50.5086 57.741 50.3945 57.6447 50.2984C57.5483 50.2022 57.4339 50.1261 57.3081 50.0742C57.1821 50.0223 57.0474 49.9958 56.9114 49.9961Z" fill="#420083"/>
<path d="M35.1182 9.65234C35.796 9.65234 36.4585 9.85334 37.0221 10.2299C37.5858 10.6065 38.025 11.1417 38.2843 11.7679C38.5437 12.3941 38.6116 13.0832 38.4793 13.748C38.3472 14.4128 38.0208 15.0234 37.5415 15.5027C37.0622 15.982 36.4516 16.3084 35.7868 16.4406C35.122 16.5729 34.4329 16.5049 33.8066 16.2456C33.1805 15.9863 32.6453 15.547 32.2686 14.9834C31.8921 14.4198 31.691 13.7572 31.691 13.0794C31.691 12.1705 32.0522 11.2988 32.6949 10.6561C33.3376 10.0134 34.2093 9.65234 35.1182 9.65234Z" fill="#420083"/>
<path d="M35.1153 9.27734C35.8652 9.27734 36.5983 9.49974 37.222 9.91639C37.8455 10.333 38.3315 10.9252 38.6185 11.6181C38.9054 12.311 38.9806 13.0734 38.8343 13.809C38.688 14.5445 38.3268 15.2201 37.7965 15.7505C37.2663 16.2807 36.5906 16.6419 35.855 16.7882C35.1195 16.9346 34.357 16.8594 33.6642 16.5725C32.9714 16.2854 32.3792 15.7995 31.9625 15.1758C31.5457 14.5523 31.3235 13.8192 31.3235 13.0692C31.3245 12.0639 31.7245 11.1001 32.4354 10.3892C33.1462 9.67837 34.1099 9.2785 35.1153 9.27734ZM35.1153 16.1314C35.7209 16.131 36.3126 15.9507 36.8158 15.614C37.319 15.2772 37.7111 14.7987 37.9424 14.2391C38.1737 13.6795 38.234 13.0638 38.1154 12.47C37.997 11.8762 37.7051 11.3308 37.2767 10.9028C36.8483 10.4749 36.3027 10.1835 35.7087 10.0656C35.1148 9.94764 34.4993 10.0085 33.9398 10.2403C33.3805 10.4722 32.9023 10.8647 32.566 11.3682C32.2297 11.8717 32.0501 12.4637 32.0501 13.0692C32.0511 13.8816 32.3744 14.6603 32.9491 15.2345C33.5238 15.8086 34.303 16.1313 35.1153 16.1314Z" fill="#420083"/>
<path d="M45.136 16.9452C38.4972 18.1849 31.6863 18.1849 25.0475 16.9452C24.9134 16.9202 24.7755 16.922 24.642 16.9508C24.5087 16.9794 24.3822 17.0344 24.2703 17.1125C24.1582 17.1905 24.0629 17.2901 23.9897 17.4054C23.9166 17.5207 23.8671 17.6492 23.8441 17.7839C23.8166 17.9182 23.8166 18.0568 23.8443 18.1912C23.872 18.3256 23.9267 18.4529 24.0051 18.5655C24.0836 18.6781 24.1841 18.7736 24.3006 18.8461C24.417 18.9185 24.5471 18.9666 24.6827 18.9873C26.9378 19.3944 29.2141 19.6744 31.5005 19.8258C31.9339 19.8591 32.337 20.061 32.6233 20.3882C32.9096 20.7153 33.0562 21.1417 33.0316 21.5757V21.6483L32.8493 23.3619C32.5455 26.0516 31.9212 28.6955 30.9897 31.2369L29.7499 34.5551C29.656 34.8063 29.6643 35.0845 29.7729 35.3298C29.8816 35.5751 30.082 35.7681 30.3314 35.8674C30.5827 35.9612 30.8607 35.9529 31.1059 35.8442C31.3512 35.7356 31.5442 35.5352 31.6437 35.2861L31.9343 34.6662C32.9191 32.5516 33.8666 30.3643 34.7053 28.1768C34.7241 28.1202 34.7547 28.0681 34.7951 28.0239C34.8355 27.9796 34.8846 27.9443 34.9393 27.9204C34.9941 27.8963 35.0533 27.8841 35.1132 27.8844C35.1728 27.8845 35.2321 27.8973 35.2866 27.9219C35.3446 27.9439 35.3975 27.9781 35.4415 28.0221C35.4854 28.0661 35.5196 28.1188 35.5417 28.1768C36.3803 30.3643 37.3278 32.5522 38.3125 34.6662L38.641 35.3587C38.7147 35.5405 38.8406 35.6964 39.0028 35.8067C39.1649 35.917 39.3561 35.9768 39.5523 35.9786C39.6762 35.972 39.7987 35.9474 39.9156 35.906C40.0432 35.8616 40.1606 35.7921 40.2611 35.7017C40.3615 35.6114 40.443 35.5019 40.5007 35.3798C40.5584 35.2576 40.5913 35.1252 40.5971 34.9902C40.6032 34.8551 40.5822 34.7203 40.5355 34.5936V34.5572L39.2957 31.2392C38.3553 28.7003 37.7307 26.0554 37.4361 23.364L37.2538 21.6506C37.2078 21.2214 37.3306 20.7914 37.596 20.4512C37.8613 20.1111 38.2486 19.8873 38.6758 19.8273H38.7486C41.0127 19.694 43.2658 19.4138 45.4936 18.9886C45.7469 18.947 45.9775 18.8179 46.1453 18.6238C46.3132 18.4297 46.4077 18.1829 46.4122 17.9263C46.4122 17.6564 46.305 17.3977 46.1141 17.2069C45.9234 17.016 45.6646 16.9089 45.3948 16.9089C45.3081 16.9003 45.2206 16.9128 45.1398 16.9452H45.136Z" fill="#420083"/>
<path d="M45.4077 16.5422C45.7748 16.5427 46.1268 16.6889 46.3864 16.9485C46.6461 17.2081 46.7922 17.5601 46.7928 17.9273V17.9513C46.7814 18.2875 46.6543 18.6095 46.4333 18.8631C46.2122 19.1167 45.9106 19.2863 45.5792 19.3436C43.3389 19.7715 41.0732 20.0532 38.7962 20.1865H38.7236C38.3978 20.2415 38.1049 20.418 37.9037 20.6802C37.7025 20.9424 37.6082 21.271 37.6394 21.5999V21.6064L37.8217 23.32C38.1124 25.9812 38.7299 28.5963 39.6604 31.1064L40.9226 34.4855V34.5328C41.0197 34.8642 40.9938 35.2195 40.8499 35.5335C40.773 35.701 40.6624 35.8508 40.5248 35.9736C40.3873 36.0963 40.2257 36.1891 40.0505 36.2464C39.896 36.3005 39.7344 36.3312 39.5709 36.3378C39.304 36.336 39.0435 36.2556 38.822 36.1065C38.6005 35.9575 38.4278 35.7466 38.3253 35.5L38.0006 34.8147C36.9324 32.5206 35.9971 30.3296 35.2196 28.3014L35.2152 28.2906C35.2074 28.2787 35.1973 28.2686 35.1854 28.2607L35.165 28.2543L35.1418 28.2425C35.1378 28.2403 35.1332 28.2391 35.1287 28.2389C35.1127 28.2389 35.0808 28.2615 35.0561 28.3117C34.2792 30.3376 33.3446 32.5264 32.2787 34.8162L31.993 35.423C31.8913 35.6813 31.7133 35.9027 31.4828 36.0574C31.2522 36.2122 30.9801 36.2929 30.7024 36.2892C30.5413 36.289 30.3814 36.2626 30.2286 36.2114H30.2214C30.0522 36.1508 29.8971 36.0561 29.766 35.933C29.6348 35.81 29.5304 35.6614 29.4591 35.4964C29.3131 35.1622 29.2973 34.7856 29.4148 34.4404L29.4192 34.4281L30.6581 31.1123C31.5801 28.5989 32.1976 25.9841 32.4973 23.3236L32.6775 21.6298V21.5614C32.6989 21.2217 32.5858 20.8874 32.3625 20.6306C32.1391 20.3738 31.8236 20.2153 31.4843 20.1894C29.1853 20.0378 26.8967 19.7565 24.6295 19.3465C24.2626 19.2824 23.9356 19.0767 23.719 18.7739C23.6136 18.6215 23.5401 18.4494 23.5027 18.268C23.4652 18.0866 23.4646 17.8996 23.5009 17.718C23.5583 17.3962 23.7263 17.1047 23.976 16.8936C24.2255 16.6827 24.5411 16.5656 24.8679 16.5626C24.9564 16.5626 25.0448 16.5715 25.1316 16.5887C28.4213 17.2021 31.7605 17.511 35.1069 17.5116C38.4401 17.511 41.7663 17.2045 45.0435 16.596C45.1602 16.5541 45.284 16.5359 45.4077 16.5422ZM46.0617 17.9156C46.0591 17.7438 45.9892 17.5798 45.8669 17.4593C45.7445 17.3386 45.5795 17.2711 45.4077 17.2711C45.3714 17.2711 45.3264 17.2711 45.3074 17.2711L45.2703 17.2899L45.2201 17.2994C41.8858 17.9214 38.501 18.2347 35.1091 18.2353C31.7171 18.2347 28.3324 17.9214 24.998 17.2994H24.9936C24.9529 17.2913 24.9115 17.2871 24.87 17.2871C24.7135 17.2901 24.5628 17.3478 24.4442 17.4501C24.3256 17.5524 24.2465 17.6929 24.2204 17.8473C24.2026 17.9344 24.2028 18.0242 24.221 18.1113C24.2391 18.1984 24.2748 18.2808 24.3259 18.3536C24.377 18.4264 24.4424 18.4879 24.518 18.5346C24.5938 18.5811 24.6782 18.6119 24.7661 18.6248C27.0069 19.0302 29.2688 19.3085 31.5411 19.4584H31.5468C32.0748 19.4977 32.566 19.7438 32.9138 20.143C33.2572 20.5403 33.4361 21.054 33.4138 21.5788V21.6638L33.229 23.397C32.923 26.1162 32.2921 28.7889 31.3499 31.3579L30.1146 34.6687C30.0525 34.8287 30.055 35.0065 30.1219 35.1646C30.1889 35.3227 30.3147 35.4485 30.4727 35.5153C30.5502 35.5407 30.6311 35.5537 30.7126 35.5538C30.8434 35.559 30.9726 35.5232 31.082 35.4514C31.1915 35.3796 31.2757 35.2754 31.323 35.1533L31.3288 35.1367L31.6282 34.5009C32.6884 32.2234 33.6172 30.0485 34.3896 28.0334L34.3947 28.0203C34.4543 27.8706 34.5563 27.7418 34.6883 27.6497C34.8204 27.5577 34.9765 27.5063 35.1374 27.5021C35.247 27.5028 35.3552 27.5277 35.4542 27.5747C35.5588 27.6166 35.6534 27.6797 35.7322 27.7602C35.8109 27.8406 35.8719 27.9366 35.9114 28.042C36.6824 30.0521 37.6096 32.2248 38.6728 34.5016L39.0093 35.2137C39.0563 35.3277 39.1355 35.4255 39.2374 35.4949C39.3393 35.5644 39.4594 35.6025 39.5826 35.6046C39.6677 35.5977 39.7515 35.5793 39.8318 35.5502C39.9144 35.5214 39.9904 35.4762 40.0552 35.4173C40.12 35.3584 40.1721 35.2871 40.2084 35.2076C40.2449 35.1278 40.2648 35.0418 40.2669 34.9543C40.2691 34.8669 40.2536 34.7798 40.2214 34.6984L40.2024 34.6425V34.6127L38.9859 31.3564C38.0343 28.7895 37.403 26.1149 37.106 23.3934L36.9237 21.6821C36.8665 21.1575 37.0162 20.6315 37.341 20.2156C37.6658 19.7999 38.1398 19.5271 38.6625 19.4554H38.6851H38.7686C41.0129 19.3239 43.246 19.0461 45.4541 18.6241H45.4731C45.6383 18.5927 45.7876 18.5049 45.8953 18.3756C46.0031 18.2465 46.0626 18.0839 46.064 17.9156H46.0617Z" fill="#420083"/>
</svg>
