<svg width="19" height="19" viewBox="0 0 19 19" fill="none" xmlns="http://www.w3.org/2000/svg">
<path d="M11.875 10.2916C11.4373 10.2916 11.0834 10.6463 11.0834 11.0832V14.25C11.0834 14.6862 10.7287 15.0416 10.2917 15.0416H7.91665V3.16662C7.91665 2.49053 7.48598 1.88649 6.83844 1.66166L6.60404 1.58324H10.2917C10.7287 1.58324 11.0834 1.93867 11.0834 2.375V4.75C11.0834 5.1869 11.4373 5.54162 11.875 5.54162C12.3128 5.54162 12.6667 5.1869 12.6667 4.75V2.375C12.6667 1.06559 11.6011 0 10.2917 0H1.78126C1.75111 0 1.72588 0.0134812 1.6966 0.017395C1.65848 0.0142059 1.62209 0 1.58339 0C0.710154 0 0 0.710007 0 1.58324V15.8332C0 16.5093 0.430673 17.1134 1.07821 17.3382L5.84257 18.9264C6.00406 18.9762 6.16467 19 6.33341 19C7.20664 19 7.91665 18.2898 7.91665 17.4166V16.625H10.2917C11.6011 16.625 12.6667 15.5594 12.6667 14.25V11.0832C12.6667 10.6463 12.3128 10.2916 11.875 10.2916Z" fill="black"/>
<path d="M18.7695 7.29134L15.618 4.22483C15.3928 4.00557 15.0539 3.93959 14.7594 4.05835C14.4655 4.17725 14.2732 4.45701 14.2732 4.76682V7.06674H11.1218C10.6869 7.06674 10.3339 7.4101 10.3339 7.83333C10.3339 8.25656 10.6869 8.59992 11.1218 8.59992H14.2732V10.8998C14.2732 11.2096 14.4655 11.4894 14.7594 11.6083C15.0539 11.7271 15.3928 11.6611 15.618 11.442L18.7695 8.37532C19.0775 8.07562 19.0775 7.59104 18.7695 7.29134Z" fill="black"/>
</svg>
