<svg width="569" height="93" viewBox="0 0 569 93" fill="none" xmlns="http://www.w3.org/2000/svg">
<path d="M142.749 31.0873C142.749 21.1824 129.905 22.6725 129.905 18.0707C129.885 17.7694 129.923 17.4667 130.016 17.1843C130.109 16.902 130.255 16.647 130.444 16.4377C130.632 16.2283 130.858 16.0698 131.106 15.9734C131.354 15.8771 131.617 15.8453 131.876 15.8804C133.24 15.8804 134.263 16.757 134.339 18.6854H142.408C142.143 12.5496 138.127 9.08725 131.99 9.08725C126.345 9.08725 121.988 12.3304 121.988 18.3786C121.874 29.1162 134.832 26.7933 134.869 31.7458C134.869 33.1921 133.846 33.981 132.52 33.981C131.156 33.981 129.982 33.1921 129.83 30.8693H121.912C122.215 37.4861 126.837 40.7731 132.783 40.7731C139.113 40.7731 142.749 36.5219 142.749 31.0873ZM161.995 40.4663H170.974L160.671 24.5571L170.481 9.56828H161.919L153.62 22.8917V9.56828H146.197V40.4663H153.62V26.9238L161.995 40.4663ZM181.127 30.649V40.4663H188.591V30.649L197.986 9.56828H189.612L184.914 21.4871L180.216 9.56828H171.732L181.127 30.649ZM217.573 9.56828V27.0552L207.686 9.56828H200.259V40.4663H207.685V23.1985L217.573 40.4663H224.999V9.56828H217.573ZM246.328 9.56828H229.242V40.4663H246.328V33.5855H236.668V28.0194H245.193V21.4892H236.668V16.4491H246.329L246.328 9.56828ZM248.526 16.4053H255.572V40.4663H262.998V16.4053H270.12V9.56828H248.526V16.4053ZM278.645 16.4053H285.691V40.4663H293.117V16.4053H300.24V9.56828H278.643L278.645 16.4053ZM320.092 9.56828H303.005V40.4663H320.092V33.5855H310.43V28.0194H318.954V21.4892H310.43V16.4491H320.091L320.092 9.56828ZM322.858 24.9515C322.858 34.199 328.125 40.6854 336.155 40.6854C342.861 40.6854 347.634 36.2151 348.96 29.2028H340.967C340.548 30.2999 339.855 31.2277 338.978 31.8678C338.101 32.5078 337.079 32.8312 336.042 32.7966C332.633 32.7966 330.397 29.7287 330.397 24.9515C330.397 20.2182 332.633 17.1482 336.042 17.1482C337.079 17.1136 338.101 17.4369 338.978 18.077C339.855 18.7171 340.548 19.6448 340.967 20.742H348.96C347.634 13.7297 342.862 9.25935 336.155 9.25935C328.125 9.26149 322.858 15.7479 322.858 24.9515ZM368.964 40.4663H376.389V9.56828H368.964V21.1824H359.908V9.56828H352.484V40.4663H359.909V28.0633H368.965L368.964 40.4663ZM397.946 9.56828V27.0552L388.058 9.56828H380.633V40.4663H388.058V23.1985L397.946 40.4663H405.372V9.56828H397.946ZM436.099 24.9077C436.099 15.6164 430.037 9.08725 422.423 9.08725C414.846 9.08725 408.709 15.6175 408.709 24.9077C408.709 34.198 414.843 40.7731 422.42 40.7731C429.998 40.7731 436.099 34.199 436.099 24.9077ZM416.285 24.9077C416.285 20.044 418.558 16.975 422.422 16.975C426.249 16.975 428.56 20.0429 428.56 24.9077C428.56 29.6849 426.25 32.7966 422.422 32.7966C418.556 32.7966 416.283 29.6849 416.283 24.9077H416.285ZM439.432 9.56828V40.4663H455.155V33.8922H446.857V9.56828H439.432ZM484.516 24.9077C484.516 15.6164 478.454 9.08725 470.84 9.08725C463.263 9.08725 457.125 15.6175 457.125 24.9077C457.125 34.198 463.261 40.7731 470.838 40.7731C478.415 40.7731 484.515 34.199 484.515 24.9077H484.516ZM464.702 24.9077C464.702 20.044 466.975 16.975 470.839 16.975C474.666 16.975 476.977 20.0429 476.977 24.9077C476.977 29.6849 474.667 32.7966 470.839 32.7966C466.974 32.7966 464.701 29.6849 464.701 24.9077H464.702ZM500.466 9.26149C492.282 9.26149 486.941 15.7479 486.941 24.9515C486.94 34.199 492.319 40.6854 500.504 40.6854C507.475 40.6854 511.605 35.6892 513.196 31.175V22.8478H499.328V29.0285H506.792C506.332 30.2822 505.552 31.3439 504.557 32.0721C503.562 32.8003 502.399 33.1604 501.222 33.1044C496.828 33.1044 494.477 30.2557 494.477 24.9526C494.477 20.2193 496.75 17.1952 500.501 17.1952C502.547 17.1952 504.062 18.1156 504.896 19.7372H512.888C511.83 13.2936 507.208 9.26149 500.465 9.26149H500.466ZM516.528 40.4663H523.954V9.56828H516.528V40.4663ZM545.283 9.56828H528.197V40.4663H545.283V33.5855H535.623V28.0194H544.147V21.4892H535.623V16.4491H545.283V9.56828ZM569 31.0873C569 21.1824 556.156 22.6725 556.156 18.0707C556.136 17.7694 556.173 17.4667 556.267 17.1843C556.36 16.9019 556.505 16.6468 556.694 16.4374C556.882 16.2279 557.108 16.0693 557.356 15.9728C557.603 15.8763 557.866 15.8444 558.126 15.8794C559.49 15.8794 560.512 16.7559 560.588 18.6843H568.658C568.393 12.5485 564.377 9.08618 558.239 9.08618C552.594 9.08618 548.238 12.3294 548.238 18.3775C548.124 29.1151 561.082 26.7923 561.119 31.7447C561.119 33.191 560.096 33.9799 558.77 33.9799C557.406 33.9799 556.231 33.191 556.08 30.8682H548.163C548.466 37.4861 553.088 40.7731 559.036 40.7731C565.363 40.7731 569 36.5219 569 31.0873Z" fill="black"/>
<path d="M132.575 73.3642H126.28L125.271 76.8105H120.971L127.073 57.3021H131.832L137.932 76.8105H133.584L132.575 73.3642ZM131.518 69.6955L129.428 62.5528L127.361 69.6955H131.518ZM139.566 69.0542C139.537 67.5859 139.83 66.1331 140.419 64.8318C140.962 63.6578 141.788 62.692 142.797 62.0525C143.872 61.3878 145.075 61.0528 146.293 61.0798C147.808 61.0182 149.296 61.5575 150.509 62.6084C151.672 63.6904 152.46 65.2189 152.732 66.9163H148.359C148.231 66.3826 147.949 65.9155 147.56 65.5921C147.172 65.2687 146.699 65.1084 146.221 65.1375C145.872 65.1253 145.526 65.2113 145.212 65.3882C144.898 65.5651 144.626 65.8276 144.419 66.153C143.926 67.0096 143.689 68.0301 143.746 69.0574C143.689 70.0846 143.926 71.1051 144.419 71.9617C144.626 72.2871 144.898 72.5496 145.212 72.7265C145.526 72.9034 145.872 72.9894 146.221 72.9772C146.699 73.0063 147.172 72.846 147.56 72.5226C147.949 72.1992 148.231 71.7321 148.359 71.1985H152.732C152.446 72.884 151.655 74.3985 150.497 75.4743C149.293 76.5385 147.808 77.0891 146.293 77.0328C145.075 77.0604 143.872 76.7262 142.797 76.0622C141.788 75.4227 140.962 74.457 140.419 73.2829C139.83 71.9804 139.536 70.526 139.566 69.0563V69.0542ZM154.702 69.0542C154.673 67.5859 154.966 66.1331 155.555 64.8318C156.097 63.6578 156.924 62.692 157.933 62.0525C159.007 61.3878 160.211 61.0528 161.429 61.0798C162.944 61.0182 164.432 61.5575 165.645 62.6084C166.808 63.6904 167.596 65.2189 167.868 66.9163H163.495C163.367 66.3826 163.085 65.9155 162.696 65.5921C162.307 65.2687 161.835 65.1084 161.357 65.1375C161.008 65.1253 160.661 65.2113 160.348 65.3882C160.034 65.5651 159.762 65.8276 159.555 66.153C159.061 67.0096 158.825 68.0301 158.882 69.0574C158.825 70.0846 159.061 71.1051 159.555 71.9617C159.762 72.2871 160.034 72.5496 160.348 72.7265C160.661 72.9034 161.008 72.9894 161.357 72.9772C161.835 73.0063 162.307 72.846 162.696 72.5226C163.085 72.1992 163.367 71.7321 163.495 71.1985H167.868C167.582 72.884 166.791 74.3985 165.633 75.4743C164.429 76.5385 162.944 77.0891 161.429 77.0328C160.211 77.0604 159.007 76.7262 157.933 76.0622C156.924 75.4227 156.097 74.457 155.555 73.2829C154.965 71.9804 154.672 70.526 154.702 69.0563V69.0542ZM183.292 68.804C183.291 69.2685 183.266 69.7324 183.219 70.1937H173.922C173.935 71.0223 174.223 71.8133 174.727 72.4032C175.198 72.9124 175.824 73.1869 176.468 73.1675C176.915 73.2051 177.361 73.0811 177.744 72.8126C178.127 72.5441 178.429 72.1444 178.607 71.6688H182.979C182.759 72.6797 182.344 73.6202 181.766 74.4203C181.17 75.2457 180.418 75.9018 179.568 76.338C178.637 76.8134 177.628 77.0504 176.611 77.0328C175.389 77.0586 174.182 76.7238 173.103 76.0601C172.087 75.4218 171.252 74.4564 170.701 73.2808C170.104 71.9823 169.807 70.5284 169.836 69.0584C169.807 67.5902 170.1 66.1374 170.689 64.8361C171.233 63.6593 172.065 62.693 173.079 62.0568C174.166 61.3909 175.381 61.0561 176.611 61.0841C177.814 61.0581 179.004 61.383 180.07 62.029C181.067 62.6452 181.889 63.5814 182.437 64.7249C183.024 65.9762 183.318 67.3829 183.292 68.8062V68.804ZM179.087 67.5534C179.101 67.1873 179.043 66.8224 178.918 66.4856C178.794 66.1489 178.605 65.8489 178.366 65.6079C177.864 65.1169 177.222 64.8594 176.565 64.8853C175.93 64.8634 175.311 65.1105 174.823 65.5801C174.329 66.0892 174.016 66.7924 173.945 67.5534H179.087ZM191.506 77.0328C190.435 77.055 189.371 76.8183 188.383 76.338C187.532 75.93 186.787 75.2741 186.221 74.4342C185.7 73.652 185.391 72.7093 185.332 71.7244H189.392C189.412 71.9831 189.481 72.2338 189.592 72.4592C189.704 72.6847 189.856 72.8796 190.039 73.0307C190.451 73.3741 190.949 73.5501 191.456 73.5309C191.874 73.5603 192.29 73.4389 192.646 73.1835C192.776 73.0862 192.883 72.9523 192.956 72.7944C193.03 72.6365 193.067 72.4596 193.066 72.2803C193.067 72.064 193.009 71.8529 192.902 71.6761C192.794 71.4994 192.642 71.3657 192.465 71.2936C191.835 70.9946 191.184 70.7575 190.519 70.5849C189.703 70.3755 188.901 70.1016 188.117 69.765C187.475 69.4771 186.906 69.0091 186.459 68.4032C185.968 67.692 185.72 66.7968 185.762 65.8879C185.756 65.0214 185.979 64.1732 186.399 63.4561C186.868 62.6823 187.518 62.0797 188.273 61.719C189.204 61.2681 190.207 61.0496 191.216 61.0777C192.898 61.0777 194.223 61.5587 195.192 62.5207C196.166 63.4933 196.766 64.8725 196.862 66.3561H193.066C193.042 66.1067 192.976 65.8652 192.871 65.6457C192.766 65.4262 192.624 65.2331 192.453 65.0777C192.061 64.7451 191.582 64.5783 191.096 64.6052C190.708 64.577 190.322 64.6891 189.991 64.9259C189.868 65.0226 189.769 65.1536 189.702 65.3066C189.634 65.4596 189.602 65.6298 189.606 65.8013C189.607 66.0207 189.667 66.2343 189.776 66.4133C189.886 66.5923 190.041 66.728 190.219 66.8019C190.834 67.0987 191.474 67.3222 192.129 67.4689C192.953 67.7035 193.763 67.9959 194.556 68.3444C195.195 68.6437 195.76 69.121 196.201 69.734C196.701 70.4636 196.961 71.3746 196.934 72.3048C196.944 73.1763 196.712 74.0285 196.273 74.7367C195.788 75.4904 195.131 76.0727 194.375 76.4182C193.465 76.8456 192.489 77.0547 191.506 77.0328ZM205.513 77.0328C204.441 77.055 203.378 76.8183 202.39 76.338C201.539 75.93 200.794 75.2741 200.227 74.4342C199.707 73.652 199.397 72.7093 199.338 71.7244H203.399C203.419 71.9831 203.487 72.2338 203.599 72.4592C203.71 72.6847 203.863 72.8796 204.045 73.0307C204.457 73.3741 204.956 73.5501 205.463 73.5309C205.881 73.5603 206.296 73.4389 206.652 73.1835C206.782 73.0862 206.889 72.9523 206.963 72.7944C207.036 72.6365 207.074 72.4596 207.073 72.2803C207.073 72.064 207.016 71.8529 206.908 71.6761C206.801 71.4994 206.648 71.3657 206.472 71.2936C205.842 70.9946 205.191 70.7575 204.526 70.5849C203.71 70.3755 202.907 70.1016 202.123 69.765C201.483 69.4764 200.915 69.0085 200.469 68.4032C199.978 67.692 199.73 66.7968 199.773 65.8879C199.767 65.0214 199.989 64.1732 200.409 63.4561C200.878 62.6823 201.528 62.0797 202.283 61.719C203.214 61.2681 204.217 61.0496 205.226 61.0777C206.908 61.0777 208.234 61.5587 209.203 62.5207C210.176 63.4933 210.776 64.8725 210.872 66.3561H207.076C207.053 66.1067 206.986 65.8652 206.881 65.6457C206.776 65.4262 206.634 65.2331 206.464 65.0777C206.071 64.7451 205.592 64.5783 205.106 64.6052C204.718 64.577 204.332 64.6891 204.001 64.9259C203.879 65.0226 203.779 65.1536 203.712 65.3066C203.645 65.4596 203.612 65.6298 203.617 65.8013C203.618 66.0207 203.677 66.2343 203.787 66.4133C203.896 66.5923 204.051 66.728 204.229 66.8019C204.845 67.0987 205.485 67.3222 206.139 67.4689C206.963 67.7035 207.773 67.9959 208.566 68.3444C209.205 68.6437 209.77 69.121 210.212 69.734C210.711 70.4636 210.971 71.3746 210.944 72.3048C210.954 73.1763 210.723 74.0285 210.284 74.7367C209.798 75.4904 209.141 76.0727 208.386 76.4182C207.475 76.8459 206.498 77.055 205.515 77.0328H205.513ZM216.132 59.6902C215.483 59.7205 214.849 59.4562 214.366 58.9536C214.146 58.7248 213.97 58.4438 213.852 58.1297C213.734 57.8156 213.676 57.4757 213.681 57.1332C213.674 56.7864 213.732 56.4418 213.85 56.1229C213.968 55.8039 214.144 55.5182 214.366 55.285C214.849 54.7825 215.483 54.5182 216.132 54.5485C216.773 54.5214 217.399 54.7857 217.874 55.285C218.096 55.5182 218.272 55.8039 218.39 56.1229C218.508 56.4418 218.566 56.7864 218.558 57.1332C218.564 57.4757 218.506 57.8156 218.387 58.1297C218.269 58.4438 218.094 58.7248 217.874 58.9536C217.399 59.4529 216.773 59.7173 216.132 59.6902ZM218.174 61.3021V76.8105H214.066V61.3021H218.174ZM225.862 63.4978C226.268 62.752 226.841 62.147 227.52 61.7468C228.284 61.2901 229.134 61.0609 229.994 61.0798C231.055 61.0654 232.097 61.4029 232.997 62.0525C233.917 62.7306 234.653 63.6935 235.123 64.8318C235.663 66.1407 235.931 67.5782 235.904 69.0285C235.93 70.4832 235.662 71.9249 235.123 73.2391C234.654 74.3852 233.918 75.3573 232.997 76.0462C232.1 76.7042 231.057 77.0469 229.994 77.0328C229.135 77.056 228.285 76.8316 227.52 76.3797C226.846 75.977 226.275 75.3784 225.862 74.6426V76.8105H221.754V56.2439H225.862V63.4978ZM231.726 69.0285C231.751 68.5208 231.688 68.0124 231.542 67.5328C231.396 67.0533 231.168 66.6123 230.873 66.2353C230.603 65.9061 230.277 65.6458 229.915 65.4709C229.553 65.2961 229.163 65.2105 228.771 65.2198C228.381 65.2126 227.995 65.3004 227.637 65.4776C227.278 65.6548 226.956 65.9174 226.692 66.2482C226.397 66.6283 226.17 67.0719 226.024 67.5535C225.878 68.0352 225.815 68.5455 225.839 69.0552C225.815 69.565 225.878 70.0753 226.024 70.5569C226.17 71.0386 226.397 71.4822 226.692 71.8623C226.956 72.1931 227.278 72.4556 227.637 72.6328C227.995 72.81 228.381 72.8979 228.771 72.8906C229.163 72.8965 229.552 72.8067 229.912 72.6271C230.272 72.4476 230.595 72.1822 230.861 71.8484C231.159 71.4673 231.388 71.0221 231.536 70.5382C231.685 70.0543 231.749 69.5412 231.726 69.0285ZM240.735 59.6902C240.086 59.7206 239.453 59.4563 238.969 58.9536C238.749 58.7248 238.574 58.4438 238.456 58.1297C238.338 57.8156 238.279 57.4757 238.285 57.1332C238.278 56.7864 238.335 56.4418 238.453 56.1229C238.571 55.8039 238.747 55.5182 238.969 55.285C239.453 54.7824 240.086 54.5181 240.735 54.5485C241.377 54.5214 242.002 54.7857 242.477 55.285C242.699 55.5182 242.875 55.8039 242.993 56.1229C243.112 56.4418 243.169 56.7864 243.162 57.1332C243.167 57.4757 243.109 57.8156 242.991 58.1297C242.873 58.4438 242.698 58.7248 242.477 58.9536C242.002 59.4529 241.377 59.7173 240.735 59.6902ZM242.777 61.3021V76.8105H238.669V61.3021H242.777ZM250.465 56.2439V76.8105H246.357V56.2439H250.465ZM256.111 59.6902C255.462 59.7206 254.829 59.4563 254.345 58.9536C254.125 58.7248 253.95 58.4438 253.832 58.1297C253.714 57.8156 253.655 57.4757 253.661 57.1332C253.654 56.7864 253.711 56.4418 253.829 56.1229C253.947 55.8039 254.123 55.5182 254.345 55.285C254.829 54.7825 255.462 54.5182 256.111 54.5485C256.753 54.5214 257.378 54.7857 257.853 55.285C258.075 55.5182 258.251 55.8039 258.369 56.1229C258.488 56.4418 258.545 56.7864 258.538 57.1332C258.543 57.4758 258.485 57.8157 258.366 58.1299C258.248 58.444 258.073 58.7249 257.852 58.9536C257.377 59.4527 256.752 59.717 256.111 59.6902ZM258.153 61.3021V76.8105H254.045V61.3021H258.153ZM269.205 72.7805V76.8105H267.115C265.625 76.8105 264.464 76.3889 263.631 75.5459C262.798 74.7028 262.382 73.3271 262.384 71.4187V65.2487H260.75V61.3021H262.38V57.5223H266.492V61.3021H269.183V65.2487H266.492V71.4743C266.477 71.6551 266.495 71.8375 266.545 72.0098C266.594 72.1821 266.675 72.3405 266.78 72.4748C267.058 72.7089 267.399 72.8176 267.741 72.7805H269.205ZM285.782 61.3021L277.373 84.1777H272.953L276.028 76.2824L270.576 61.3021H275.165L278.264 71.0018L281.339 61.3021H285.782ZM292.87 67.0296C292.842 65.2323 293.214 63.4569 293.951 61.874C294.648 60.3926 295.693 59.1697 296.966 58.3465C298.307 57.4883 299.818 57.0523 301.35 57.0819C303.192 57.0238 304.999 57.6684 306.492 58.9162C307.921 60.1457 308.933 61.9159 309.351 63.9189H304.834C304.53 63.1461 304.032 62.4971 303.405 62.0568C302.768 61.6237 302.041 61.4018 301.302 61.4154C300.724 61.3921 300.148 61.5171 299.617 61.7814C299.085 62.0456 298.611 62.4427 298.227 62.944C297.405 64.0864 296.985 65.545 297.05 67.0296C296.985 68.5142 297.405 69.9728 298.227 71.1151C298.611 71.6165 299.085 72.0135 299.617 72.2778C300.148 72.5421 300.724 72.667 301.302 72.6437C302.041 72.6573 302.768 72.4354 303.405 72.0023C304.032 71.562 304.53 70.9131 304.834 70.1402H309.351C308.935 72.1404 307.922 73.9069 306.492 75.129C304.996 76.3685 303.19 77.0078 301.35 76.9494C299.818 76.9791 298.307 76.543 296.966 75.6849C295.695 74.8638 294.65 73.6453 293.951 72.1691C293.214 70.5922 292.841 68.8219 292.87 67.0296ZM320.715 61.1354C321.405 61.1018 322.093 61.2421 322.732 61.5467C323.371 61.8512 323.945 62.3127 324.414 62.8991C325.343 64.075 325.808 65.6916 325.808 67.749V76.8105H321.724V68.3893C321.771 67.5093 321.521 66.6425 321.027 65.9713C320.786 65.6817 320.493 65.455 320.17 65.3064C319.847 65.1578 319.5 65.0908 319.153 65.1097C318.806 65.0908 318.459 65.1578 318.136 65.3064C317.812 65.455 317.52 65.6817 317.279 65.9713C316.785 66.6425 316.535 67.5093 316.582 68.3893V76.8105H312.474V56.2439H316.582V63.3866C317.02 62.6801 317.607 62.1155 318.288 61.7468C319.045 61.3298 319.876 61.1205 320.715 61.1354ZM341.905 68.8062C341.904 69.2706 341.88 69.7346 341.833 70.1958H332.535C332.548 71.0244 332.836 71.8154 333.34 72.4053C333.811 72.9145 334.437 73.189 335.082 73.1696C335.528 73.2071 335.974 73.0828 336.358 72.8139C336.741 72.5449 337.042 72.1448 337.22 71.6688H341.592C341.372 72.6798 340.957 73.6202 340.379 74.4203C339.783 75.2457 339.031 75.9018 338.181 76.338C337.25 76.8134 336.241 77.0504 335.224 77.0328C334.002 77.0586 332.795 76.7238 331.716 76.0601C330.7 75.4218 329.865 74.4564 329.314 73.2808C328.717 71.9823 328.42 70.5284 328.449 69.0584C328.42 67.5902 328.713 66.1374 329.302 64.8361C329.847 63.6593 330.678 62.693 331.692 62.0568C332.779 61.3909 333.994 61.0561 335.224 61.0841C336.427 61.0581 337.617 61.383 338.683 62.029C339.68 62.6452 340.502 63.5814 341.05 64.7249C341.637 65.9762 341.931 67.3829 341.905 68.8062ZM337.7 67.5555C337.714 67.1894 337.656 66.8245 337.531 66.4878C337.407 66.151 337.218 65.851 336.979 65.61C336.477 65.1191 335.835 64.8616 335.178 64.8874C334.543 64.8655 333.924 65.1126 333.436 65.5822C332.942 66.0913 332.629 66.7946 332.558 67.5555H337.7ZM343.851 69.0563C343.821 67.588 344.115 66.1352 344.704 64.8339C345.246 63.6599 346.073 62.6942 347.082 62.0547C348.156 61.3899 349.36 61.055 350.578 61.0819C352.093 61.0203 353.58 61.5597 354.794 62.6105C355.957 63.6926 356.745 65.2211 357.016 66.9184H352.644C352.515 66.3847 352.234 65.9177 351.845 65.5943C351.456 65.2709 350.984 65.1105 350.506 65.1397C350.157 65.1274 349.81 65.2135 349.496 65.3904C349.182 65.5673 348.91 65.8297 348.704 66.1552C348.21 67.0117 347.974 68.0322 348.031 69.0595C347.974 70.0868 348.21 71.1073 348.704 71.9638C348.91 72.2893 349.182 72.5517 349.496 72.7286C349.81 72.9055 350.157 72.9916 350.506 72.9793C350.984 73.0085 351.456 72.8481 351.845 72.5247C352.234 72.2013 352.515 71.7343 352.644 71.2006H357.016C356.731 72.8851 355.94 74.3987 354.784 75.4743C353.579 76.5385 352.094 77.0891 350.579 77.0328C349.361 77.0608 348.157 76.7266 347.082 76.0622C346.073 75.4227 345.246 74.4569 344.704 73.2829C344.114 71.9804 343.821 70.526 343.851 69.0563ZM367.998 76.8105L363.913 70.307V76.8105H359.805V56.2439H363.913V67.6111L367.974 61.3043H373.043L367.469 69.0862L373.089 76.8105H367.998ZM387.89 68.8062C387.889 69.2706 387.865 69.7346 387.818 70.1958H378.519C378.532 71.0244 378.82 71.8154 379.324 72.4053C379.795 72.9145 380.421 73.189 381.065 73.1696C381.512 73.2071 381.958 73.0828 382.341 72.8139C382.725 72.5449 383.026 72.1448 383.204 71.6688H387.576C387.355 72.6797 386.941 73.6202 386.363 74.4203C385.767 75.2457 385.015 75.9018 384.165 76.338C383.234 76.8134 382.225 77.0504 381.208 77.0328C379.986 77.0592 378.779 76.7252 377.7 76.0622C376.684 75.4239 375.849 74.4585 375.298 73.2829C374.701 71.9844 374.403 70.5305 374.433 69.0606C374.403 67.5923 374.697 66.1395 375.286 64.8382C375.83 63.6614 376.661 62.6952 377.676 62.0589C378.763 61.393 379.978 61.0583 381.208 61.0862C382.411 61.0602 383.601 61.3852 384.667 62.0312C385.664 62.6474 386.486 63.5835 387.034 64.727C387.62 65.9777 387.915 67.3836 387.888 68.8062H387.89ZM383.686 67.5555C383.7 67.1894 383.642 66.8245 383.517 66.4878C383.392 66.151 383.204 65.851 382.965 65.61C382.463 65.1191 381.821 64.8616 381.163 64.8874C380.529 64.8655 379.909 65.1126 379.422 65.5822C378.928 66.0913 378.615 66.7946 378.544 67.5555H383.686ZM394.761 63.8869C395.218 63.0616 395.835 62.3715 396.563 61.8719C397.292 61.3786 398.122 61.124 398.966 61.1354V66.1659H397.835C397.012 66.0944 396.194 66.3654 395.528 66.9302C395.016 67.4397 394.76 68.3337 394.76 69.6122V76.8105H390.651V61.3021H394.76L394.761 63.8869Z" fill="#420083"/>
<path d="M8.53244 93C7.05346 93.0001 5.59995 92.5545 4.31513 91.7071C3.34086 91.0677 2.48516 90.2123 1.79702 89.1899C1.10887 88.1675 0.601803 86.9981 0.30483 85.7487C0.00785819 84.4992 -0.0731834 83.1943 0.0663444 81.9086C0.205872 80.6229 0.563229 79.3817 1.11796 78.256L37.2331 4.98529C38.3558 2.71047 40.2129 1.04397 42.3968 0.351633C44.5806 -0.340699 46.9127 -0.00227652 48.881 1.29261C49.8553 1.93198 50.711 2.78737 51.3992 3.8098C52.0873 4.83223 52.5944 6.00162 52.8913 7.25104C53.1883 8.50046 53.2694 9.80537 53.1298 11.0911C52.9903 12.3768 52.6329 13.618 52.0782 14.7437L15.9626 88.0128C15.2154 89.5293 14.1342 90.7897 12.829 91.6657C11.5239 92.5418 10.0414 93.0021 8.53244 93Z" fill="#442871"/>
<path d="M80.7799 92.9999C79.2711 93.0023 77.7887 92.5422 76.4836 91.6664C75.1784 90.7907 74.0971 89.5305 73.3497 88.0143L37.2342 14.7436C36.6794 13.6179 36.3221 12.3767 36.1826 11.091C36.043 9.80528 36.1241 8.50037 36.421 7.25095C36.718 6.00153 37.2251 4.83213 37.9132 3.8097C38.6014 2.78727 39.4571 1.93188 40.4313 1.29251C42.3996 -0.00224976 44.7315 -0.340659 46.9153 0.351563C49.099 1.04378 50.9561 2.71007 52.0788 4.98466L88.1944 78.2543C88.9316 79.7553 89.3155 81.4537 89.3079 83.1801C89.3003 84.9064 88.9014 86.6002 88.1511 88.0925C87.4007 89.5848 86.3251 90.8233 85.0317 91.6844C83.7383 92.5455 82.2723 92.9991 80.7799 92.9999Z" fill="#442871"/>
<path d="M56.573 88.4294C56.3734 88.4294 56.1732 88.4194 55.9724 88.3995C54.8906 88.2929 53.8448 87.8982 52.9169 87.2461C51.9889 86.5941 51.204 85.7025 50.6236 84.641L39.3878 64.0744C38.3948 62.2493 38.0692 60.0426 38.4827 57.9398C38.8962 55.837 40.0148 54.0103 41.5925 52.8617C43.1702 51.713 45.0778 51.3364 46.8955 51.8147C48.7132 52.293 50.2923 53.5871 51.2852 55.4122L57.5687 66.9098L97.8757 15.2865C99.1262 13.6865 100.874 12.7254 102.736 12.6139C104.598 12.5024 106.422 13.2496 107.809 14.6916C108.495 15.4044 109.052 16.2668 109.45 17.2294C109.847 18.1919 110.076 19.2357 110.124 20.3008C110.172 21.366 110.038 22.4316 109.729 23.4367C109.42 24.4417 108.943 25.3664 108.325 26.1577L61.7966 85.7458C61.1365 86.5908 60.3306 87.2662 59.4308 87.7284C58.5311 88.1907 57.5575 88.4295 56.573 88.4294Z" fill="#913BEF"/>
</svg>
