<svg width="16" height="19" viewBox="0 0 16 19" fill="none" xmlns="http://www.w3.org/2000/svg">
<path d="M7.72266 4.15625C8.86934 4.15625 9.80078 3.2248 9.80078 2.07812C9.80078 0.931445 8.86934 0 7.72266 0C6.57598 0 5.64453 0.931445 5.64453 2.07812C5.64453 3.2248 6.57598 4.15625 7.72266 4.15625Z" fill="black"/>
<path d="M14.2537 4.18584L14.2352 4.18955L14.2203 4.19326C14.1832 4.20439 14.1461 4.21552 14.109 4.22666C13.4188 4.43076 10.0678 5.37334 7.70391 5.37334C5.51074 5.37334 2.46035 4.55693 1.48438 4.27861C1.38789 4.2415 1.2877 4.2081 1.1875 4.18213C0.482422 3.99658 0 4.71279 0 5.36592C0 6.01533 0.582617 6.32334 1.16895 6.54599V6.55713L4.70176 7.65927C5.06172 7.79658 5.1582 7.93759 5.20644 8.06006C5.35859 8.45341 5.23613 9.23271 5.19531 9.50361L4.98008 11.1735L3.78887 17.7159C3.78516 17.7345 3.78145 17.753 3.77773 17.7716L3.77031 17.8198C3.68496 18.4173 4.12285 18.9999 4.95781 18.9999C5.68516 18.9999 6.00801 18.4989 6.14531 17.8161C6.14531 17.8161 7.18438 11.9677 7.70391 11.9677C8.22344 11.9677 9.29219 17.8161 9.29219 17.8161C9.4332 18.4989 9.75234 18.9999 10.4797 18.9999C11.3146 18.9999 11.7562 18.4173 11.6672 17.8161C11.6598 17.7642 11.6486 17.7159 11.6375 17.664L10.4314 11.181L10.2162 9.51103C10.0604 8.53877 10.1865 8.21591 10.2273 8.1417C10.2273 8.1417 10.2311 8.13799 10.2311 8.13427C10.2719 8.06006 10.4537 7.89306 10.8805 7.73349L14.1943 6.57568C14.2129 6.57197 14.2352 6.56455 14.2537 6.55713C14.8475 6.33447 15.4412 6.02646 15.4412 5.37334C15.4412 4.72021 14.9588 4.00029 14.2537 4.18584Z" fill="black"/>
</svg>
